<?xml version="1.0" encoding="UTF-8"?>
<!DOCTYPE svg PUBLIC "-//W3C//DTD SVG 1.1//EN" "http://www.w3.org/Graphics/SVG/1.1/DTD/svg11.dtd">
<!-- Creator: CorelDRAW -->
<svg xmlns="http://www.w3.org/2000/svg" xml:space="preserve" width="55.782mm" height="47.3137mm" version="1.1" shape-rendering="geometricPrecision" text-rendering="geometricPrecision" image-rendering="optimizeQuality" fill-rule="evenodd" clip-rule="evenodd"
viewBox="0 0 1667.43 1414.3"
 xmlns:xlink="http://www.w3.org/1999/xlink"
 xmlns:xodm="http://www.corel.com/coreldraw/odm/2003">
 <defs>
   <clipPath id="id0">
    <path d="M-0 0l1667.43 0 0 1414.3 -1667.43 0 0 -1414.3z"/>
   </clipPath>
 </defs>
 <g id="Camada_x0020_1">
  <metadata id="CorelCorpID_0Corel-Layer"/>
  <g>
  </g>
  <g clip-path="url(#id0)">
   <g id="_2623820532464">
    <g>
     <g>
      <polygon fill="none" fill-rule="nonzero" stroke="#4E6982" stroke-width="2.64" stroke-miterlimit="10" points="475.86,-15.85 426.16,12.84 573.1,98.38 426.15,183.21 279.22,98.38 229.52,127.07 114.75,193.33 426.15,373.12 737.55,193.33 737.55,2.24 590.62,-82.12 "/>
      <polygon fill="none" fill-rule="nonzero" stroke="#4E6982" stroke-width="2.64" stroke-miterlimit="10" points="376.44,15.85 426.14,-12.84 279.2,-98.37 426.15,-183.21 573.07,-98.37 622.77,-127.07 737.55,-193.33 426.15,-373.12 114.75,-193.33 114.75,-2.24 261.67,82.12 "/>
     </g>
     <g>
      <polygon fill="none" fill-rule="nonzero" stroke="#4E6982" stroke-width="2.64" stroke-miterlimit="10" points="1309.57,-15.85 1259.88,12.84 1406.81,98.38 1259.86,183.21 1112.94,98.38 1063.24,127.07 948.46,193.33 1259.86,373.12 1571.26,193.33 1571.26,2.24 1424.34,-82.12 "/>
      <polygon fill="none" fill-rule="nonzero" stroke="#4E6982" stroke-width="2.64" stroke-miterlimit="10" points="1210.15,15.85 1259.85,-12.84 1112.91,-98.37 1259.86,-183.21 1406.79,-98.37 1456.49,-127.07 1571.26,-193.33 1259.86,-373.12 948.46,-193.33 948.46,-2.24 1095.39,82.12 "/>
     </g>
     <g>
      <polygon fill="none" fill-rule="nonzero" stroke="#4E6982" stroke-width="2.64" stroke-miterlimit="10" points="49.71,691.3 0.01,719.99 146.95,805.52 0,890.36 -146.92,805.52 -196.62,834.22 -311.4,900.48 0,1080.27 311.4,900.48 311.4,709.39 164.47,625.03 "/>
      <polygon fill="none" fill-rule="nonzero" stroke="#4E6982" stroke-width="2.64" stroke-miterlimit="10" points="-49.71,723 -0.01,694.31 -146.95,608.78 -0,523.94 146.93,608.78 196.63,580.08 311.4,513.81 -0,334.03 -311.4,513.81 -311.4,704.9 -164.47,789.27 "/>
     </g>
     <g>
      <polygon fill="none" fill-rule="nonzero" stroke="#4E6982" stroke-width="2.64" stroke-miterlimit="10" points="475.86,1398.45 426.16,1427.14 573.1,1512.67 426.15,1597.51 279.22,1512.67 229.52,1541.37 114.75,1607.63 426.15,1787.42 737.55,1607.63 737.55,1416.54 590.62,1332.18 "/>
      <polygon fill="none" fill-rule="nonzero" stroke="#4E6982" stroke-width="2.64" stroke-miterlimit="10" points="376.44,1430.15 426.14,1401.46 279.2,1315.92 426.15,1231.09 573.07,1315.92 622.77,1287.23 737.55,1220.96 426.15,1041.18 114.75,1220.96 114.75,1412.05 261.67,1496.42 "/>
     </g>
     <g>
      <polygon fill="none" fill-rule="nonzero" stroke="#4E6982" stroke-width="2.64" stroke-miterlimit="10" points="883.42,691.3 833.72,719.99 980.66,805.52 833.71,890.36 686.78,805.52 637.08,834.22 522.31,900.48 833.71,1080.27 1145.11,900.48 1145.11,709.39 998.18,625.03 "/>
      <polygon fill="none" fill-rule="nonzero" stroke="#4E6982" stroke-width="2.64" stroke-miterlimit="10" points="784,723 833.7,694.31 686.76,608.78 833.71,523.94 980.64,608.78 1030.34,580.08 1145.11,513.81 833.71,334.03 522.31,513.81 522.31,704.9 669.24,789.27 "/>
     </g>
     <g>
      <polygon fill="none" fill-rule="nonzero" stroke="#4E6982" stroke-width="2.64" stroke-miterlimit="10" points="1309.57,1398.45 1259.88,1427.14 1406.81,1512.67 1259.86,1597.51 1112.94,1512.67 1063.24,1541.37 948.46,1607.63 1259.86,1787.42 1571.26,1607.63 1571.26,1416.54 1424.34,1332.18 "/>
      <polygon fill="none" fill-rule="nonzero" stroke="#4E6982" stroke-width="2.64" stroke-miterlimit="10" points="1210.15,1430.15 1259.85,1401.46 1112.91,1315.92 1259.86,1231.09 1406.79,1315.92 1456.49,1287.23 1571.26,1220.96 1259.86,1041.18 948.46,1220.96 948.46,1412.05 1095.39,1496.42 "/>
     </g>
     <g>
      <polygon fill="none" fill-rule="nonzero" stroke="#4E6982" stroke-width="2.64" stroke-miterlimit="10" points="1717.14,691.3 1667.44,719.99 1814.38,805.52 1667.43,890.36 1520.51,805.52 1470.8,834.22 1356.02,900.48 1667.43,1080.27 1978.83,900.48 1978.83,709.39 1831.9,625.03 "/>
      <polygon fill="none" fill-rule="nonzero" stroke="#4E6982" stroke-width="2.64" stroke-miterlimit="10" points="1617.72,723 1667.42,694.31 1520.48,608.78 1667.43,523.94 1814.36,608.78 1864.06,580.08 1978.83,513.81 1667.43,334.03 1356.03,513.81 1356.03,704.9 1502.96,789.27 "/>
     </g>
    </g>
    <polygon fill="#63858E" fill-rule="nonzero" points="3591.8,2293.07 1814,2293.07 1814,2084.84 3591.8,2084.84 "/>
    <polygon fill="#A6B4B7" fill-rule="nonzero" points="3590.5,2293.07 5364.66,2293.07 5364.66,2084.84 3590.5,2084.84 "/>
    <polygon fill="#4E6982" fill-rule="nonzero" points="37.48,2293.07 -1740.32,2293.07 -1740.32,2084.84 37.48,2084.84 "/>
    <polygon fill="#072959" fill-rule="nonzero" points="1814,2293.07 36.19,2293.07 36.19,2084.84 1814,2084.84 "/>
    <polygon fill="#CCCCCA" fill-rule="nonzero" points="-3513.18,2293.07 -1735.38,2293.07 -1735.38,2084.84 -3513.18,2084.84 "/>
   </g>
  </g>
  <polygon fill="none" points="-0,0 1667.43,0 1667.43,1414.3 -0,1414.3 "/>
 </g>
</svg>
