<?xml version="1.0" encoding="UTF-8"?>
<!DOCTYPE svg PUBLIC "-//W3C//DTD SVG 1.1//EN" "http://www.w3.org/Graphics/SVG/1.1/DTD/svg11.dtd">
<!-- Creator: CorelDRAW -->
<svg xmlns="http://www.w3.org/2000/svg" xml:space="preserve" width="55.782mm" height="47.3137mm" version="1.1" style="shape-rendering:geometricPrecision; text-rendering:geometricPrecision; image-rendering:optimizeQuality; fill-rule:evenodd; clip-rule:evenodd"
viewBox="0 0 5517.92 4680.24"
 xmlns:xlink="http://www.w3.org/1999/xlink"
 xmlns:xodm="http://www.corel.com/coreldraw/odm/2003">
 <defs>
  <style type="text/css">
   <![CDATA[
    .str1 {stroke:#4E6982;stroke-width:8.72;stroke-miterlimit:10}
    .str0 {stroke:#373435;stroke-width:19.78;stroke-miterlimit:22.9256}
    .fil7 {fill:none}
    .fil1 {fill:none;fill-rule:nonzero}
    .fil0 {fill:#072959}
    .fil5 {fill:#072959;fill-rule:nonzero}
    .fil4 {fill:#4E6982;fill-rule:nonzero}
    .fil2 {fill:#63858E;fill-rule:nonzero}
    .fil3 {fill:#A6B4B7;fill-rule:nonzero}
    .fil6 {fill:#CCCCCA;fill-rule:nonzero}
   ]]>
  </style>
   <clipPath id="id0">
    <path d="M-0 0l5517.92 0 0 4680.24 -5517.92 0 0 -4680.24z"/>
   </clipPath>
 </defs>
 <g id="Camada_x0020_1">
  <metadata id="CorelCorpID_0Corel-Layer"/>
  <g>
  </g>
  <g style="clip-path:url(#id0)">
   <g id="_2018271036688">
    <rect class="fil0 str0" x="-527.74" y="-431.99" width="6293.75" height="5343.75"/>
    <g>
     <g>
      <polygon class="fil1 str1" points="1574.73,-52.45 1410.26,42.51 1896.51,325.55 1410.22,606.3 924.02,325.55 759.54,420.51 379.73,639.79 1410.22,1234.74 2440.72,639.79 2440.72,7.43 1954.51,-271.74 "/>
      <polygon class="fil1 str1" points="1245.72,52.46 1410.18,-42.5 923.94,-325.54 1410.22,-606.29 1896.43,-325.54 2060.91,-420.5 2440.72,-639.79 1410.22,-1234.74 379.72,-639.79 379.72,-7.43 865.94,271.74 "/>
     </g>
     <g>
      <polygon class="fil1 str1" points="4333.69,-52.45 4169.22,42.51 4655.47,325.55 4169.18,606.3 3682.97,325.55 3518.5,420.51 3138.69,639.79 4169.18,1234.74 5199.68,639.79 5199.68,7.43 4713.47,-271.74 "/>
      <polygon class="fil1 str1" points="4004.68,52.46 4169.14,-42.5 3682.9,-325.54 4169.18,-606.29 4655.39,-325.54 4819.86,-420.5 5199.68,-639.79 4169.18,-1234.74 3138.68,-639.79 3138.68,-7.43 3624.9,271.74 "/>
     </g>
     <g>
      <polygon class="fil1 str1" points="164.51,2287.67 0.04,2382.62 486.29,2665.67 0.01,2946.41 -486.21,2665.67 -650.67,2760.62 -1030.49,2979.91 0.01,3574.87 1030.5,2979.91 1030.5,2347.55 544.28,2068.37 "/>
      <polygon class="fil1 str1" points="-164.5,2392.57 -0.03,2297.62 -486.28,2014.58 -0,1733.84 486.22,2014.58 650.68,1919.63 1030.5,1700.33 -0,1105.38 -1030.49,1700.33 -1030.49,2332.7 -544.27,2611.87 "/>
     </g>
     <g>
      <polygon class="fil1 str1" points="1574.73,4627.79 1410.26,4722.75 1896.51,5005.79 1410.22,5286.54 924.02,5005.79 759.54,5100.75 379.73,5320.03 1410.22,5914.98 2440.72,5320.03 2440.72,4687.67 1954.51,4408.5 "/>
      <polygon class="fil1 str1" points="1245.72,4732.7 1410.18,4637.74 923.94,4354.7 1410.22,4073.95 1896.43,4354.7 2060.91,4259.74 2440.72,4040.46 1410.22,3445.5 379.72,4040.46 379.72,4672.81 865.94,4951.99 "/>
     </g>
     <g>
      <polygon class="fil1 str1" points="2923.44,2287.67 2758.98,2382.62 3245.23,2665.67 2758.94,2946.41 2272.73,2665.67 2108.26,2760.62 1728.45,2979.91 2758.94,3574.87 3789.44,2979.91 3789.44,2347.55 3303.22,2068.37 "/>
      <polygon class="fil1 str1" points="2594.44,2392.57 2758.91,2297.62 2272.66,2014.58 2758.94,1733.84 3245.16,2014.58 3409.62,1919.63 3789.44,1700.33 2758.94,1105.38 1728.45,1700.33 1728.45,2332.7 2214.67,2611.87 "/>
     </g>
     <g>
      <polygon class="fil1 str1" points="4333.69,4627.79 4169.22,4722.75 4655.47,5005.79 4169.18,5286.54 3682.97,5005.79 3518.5,5100.75 3138.69,5320.03 4169.18,5914.98 5199.68,5320.03 5199.68,4687.67 4713.47,4408.5 "/>
      <polygon class="fil1 str1" points="4004.68,4732.7 4169.14,4637.74 3682.9,4354.7 4169.18,4073.95 4655.39,4354.7 4819.86,4259.74 5199.68,4040.46 4169.18,3445.5 3138.68,4040.46 3138.68,4672.81 3624.9,4951.99 "/>
     </g>
     <g>
      <polygon class="fil1 str1" points="5682.42,2287.67 5517.96,2382.62 6004.21,2665.67 5517.92,2946.41 5031.71,2665.67 4867.24,2760.62 4487.4,2979.91 5517.92,3574.87 6548.42,2979.91 6548.42,2347.55 6062.2,2068.37 "/>
      <polygon class="fil1 str1" points="5353.42,2392.57 5517.89,2297.62 5031.64,2014.58 5517.92,1733.84 6004.14,2014.58 6168.6,1919.63 6548.42,1700.33 5517.92,1105.38 4487.43,1700.33 4487.43,2332.7 4973.64,2611.87 "/>
     </g>
    </g>
    <polygon class="fil2" points="11581.59,6501.07 5698.42,6501.07 5698.42,5812 11581.59,5812 "/>
    <polygon class="fil3" points="11577.3,6501.07 17448.4,6501.07 17448.4,5812 11577.3,5812 "/>
    <polygon class="fil4" points="-180.5,6501.07 -6063.67,6501.07 -6063.67,5812 -180.5,5812 "/>
    <polygon class="fil5" points="5698.42,6501.07 -184.75,6501.07 -184.75,5812 5698.42,5812 "/>
    <polygon class="fil6" points="-11930.47,6501.07 -6047.31,6501.07 -6047.31,5812 -11930.47,5812 "/>
   </g>
  </g>
  <polygon class="fil7" points="-0,0 5517.92,0 5517.92,4680.24 -0,4680.24 "/>
 </g>
</svg>
