<?xml version="1.0" encoding="UTF-8"?>
<!DOCTYPE svg PUBLIC "-//W3C//DTD SVG 1.1//EN" "http://www.w3.org/Graphics/SVG/1.1/DTD/svg11.dtd">
<!-- Creator: CorelDRAW -->
<svg xmlns="http://www.w3.org/2000/svg" xml:space="preserve" width="55.782mm" height="47.3137mm" version="1.1" shape-rendering="geometricPrecision" text-rendering="geometricPrecision" image-rendering="optimizeQuality" fill-rule="evenodd" clip-rule="evenodd"
viewBox="0 0 4597.77 3899.78"
 xmlns:xlink="http://www.w3.org/1999/xlink"
 xmlns:xodm="http://www.corel.com/coreldraw/odm/2003">
 <defs>
   <clipPath id="id0">
    <path d="M-0 0l4597.77 0 0 3899.78 -4597.77 0 0 -3899.78z"/>
   </clipPath>
 </defs>
 <g id="Camada_x0020_1">
  <metadata id="CorelCorpID_0Corel-Layer"/>
  <g>
  </g>
  <g clip-path="url(#id0)">
   <g id="_2623724367024">
    <g>
     <g>
      <polygon fill="none" fill-rule="nonzero" stroke="#072959" stroke-width="7.27" stroke-miterlimit="10" points="1312.13,-43.7 1175.09,35.42 1580.26,271.27 1175.06,505.19 769.93,271.27 632.88,350.38 316.41,533.1 1175.06,1028.84 2033.71,533.1 2033.71,6.19 1628.58,-226.43 "/>
      <polygon fill="none" fill-rule="nonzero" stroke="#072959" stroke-width="7.27" stroke-miterlimit="10" points="1037.99,43.71 1175.03,-35.41 769.86,-271.26 1175.06,-505.18 1580.19,-271.26 1717.24,-350.38 2033.71,-533.1 1175.06,-1028.84 316.4,-533.1 316.4,-6.19 721.54,226.43 "/>
     </g>
     <g>
      <polygon fill="none" fill-rule="nonzero" stroke="#072959" stroke-width="7.27" stroke-miterlimit="10" points="3611.01,-43.7 3473.98,35.42 3879.14,271.27 3473.94,505.19 3068.81,271.27 2931.77,350.38 2615.29,533.1 3473.94,1028.84 4332.59,533.1 4332.59,6.19 3927.46,-226.43 "/>
      <polygon fill="none" fill-rule="nonzero" stroke="#072959" stroke-width="7.27" stroke-miterlimit="10" points="3336.87,43.71 3473.91,-35.41 3068.75,-271.26 3473.94,-505.18 3879.07,-271.26 4016.12,-350.38 4332.59,-533.1 3473.94,-1028.84 2615.28,-533.1 2615.28,-6.19 3020.42,226.43 "/>
     </g>
     <g>
      <polygon fill="none" fill-rule="nonzero" stroke="#072959" stroke-width="7.27" stroke-miterlimit="10" points="137.08,1906.18 0.03,1985.3 405.2,2221.15 0.01,2455.08 -405.13,2221.15 -542.17,2300.27 -858.65,2482.99 0.01,2978.73 858.66,2482.99 858.66,1956.08 453.52,1723.46 "/>
      <polygon fill="none" fill-rule="nonzero" stroke="#072959" stroke-width="7.27" stroke-miterlimit="10" points="-137.07,1993.59 -0.02,1914.48 -405.19,1678.64 -0,1444.71 405.14,1678.64 542.18,1599.52 858.66,1416.79 -0,921.05 -858.65,1416.79 -858.65,1943.7 -453.51,2176.32 "/>
     </g>
     <g>
      <polygon fill="none" fill-rule="nonzero" stroke="#072959" stroke-width="7.27" stroke-miterlimit="10" points="1312.13,3856.08 1175.09,3935.2 1580.26,4171.04 1175.06,4404.97 769.93,4171.04 632.88,4250.16 316.41,4432.88 1175.06,4928.62 2033.71,4432.88 2033.71,3905.97 1628.58,3673.35 "/>
      <polygon fill="none" fill-rule="nonzero" stroke="#072959" stroke-width="7.27" stroke-miterlimit="10" points="1037.99,3943.49 1175.03,3864.37 769.86,3628.52 1175.06,3394.59 1580.19,3628.52 1717.24,3549.4 2033.71,3366.69 1175.06,2870.94 316.4,3366.69 316.4,3893.59 721.54,4126.21 "/>
     </g>
     <g>
      <polygon fill="none" fill-rule="nonzero" stroke="#072959" stroke-width="7.27" stroke-miterlimit="10" points="2435.94,1906.18 2298.9,1985.3 2704.06,2221.15 2298.87,2455.08 1893.74,2221.15 1756.69,2300.27 1440.22,2482.99 2298.87,2978.73 3157.53,2482.99 3157.53,1956.08 2752.39,1723.46 "/>
      <polygon fill="none" fill-rule="nonzero" stroke="#072959" stroke-width="7.27" stroke-miterlimit="10" points="2161.8,1993.59 2298.84,1914.48 1893.68,1678.64 2298.87,1444.71 2704.01,1678.64 2841.04,1599.52 3157.53,1416.79 2298.87,921.05 1440.22,1416.79 1440.22,1943.7 1845.35,2176.32 "/>
     </g>
     <g>
      <polygon fill="none" fill-rule="nonzero" stroke="#072959" stroke-width="7.27" stroke-miterlimit="10" points="3611.01,3856.08 3473.98,3935.2 3879.14,4171.04 3473.94,4404.97 3068.81,4171.04 2931.77,4250.16 2615.29,4432.88 3473.94,4928.62 4332.59,4432.88 4332.59,3905.97 3927.46,3673.35 "/>
      <polygon fill="none" fill-rule="nonzero" stroke="#072959" stroke-width="7.27" stroke-miterlimit="10" points="3336.87,3943.49 3473.91,3864.37 3068.75,3628.52 3473.94,3394.59 3879.07,3628.52 4016.12,3549.4 4332.59,3366.69 3473.94,2870.94 2615.28,3366.69 2615.28,3893.59 3020.42,4126.21 "/>
     </g>
     <g>
      <polygon fill="none" fill-rule="nonzero" stroke="#072959" stroke-width="7.27" stroke-miterlimit="10" points="4734.84,1906.18 4597.8,1985.3 5002.96,2221.15 4597.77,2455.08 4192.64,2221.15 4055.59,2300.27 3739.09,2482.99 4597.77,2978.73 5456.43,2482.99 5456.43,1956.08 5051.29,1723.46 "/>
      <polygon fill="none" fill-rule="nonzero" stroke="#072959" stroke-width="7.27" stroke-miterlimit="10" points="4460.7,1993.59 4597.74,1914.48 4192.58,1678.64 4597.77,1444.71 5002.91,1678.64 5139.94,1599.52 5456.43,1416.79 4597.77,921.05 3739.12,1416.79 3739.12,1943.7 4144.26,2176.32 "/>
     </g>
    </g>
    <polygon fill="#63858E" fill-rule="nonzero" points="9904.03,6322.91 5001.91,6322.91 5001.91,5748.74 9904.03,5748.74 "/>
    <polygon fill="#A6B4B7" fill-rule="nonzero" points="9900.45,6322.91 14792.5,6322.91 14792.5,5748.74 9900.45,5748.74 "/>
    <polygon fill="#4E6982" fill-rule="nonzero" points="103.34,6322.91 -4798.77,6322.91 -4798.77,5748.74 103.34,5748.74 "/>
    <polygon fill="#072959" fill-rule="nonzero" points="5001.91,6322.91 99.8,6322.91 99.8,5748.74 5001.91,5748.74 "/>
    <polygon fill="#CCCCCA" fill-rule="nonzero" points="-9687.24,6322.91 -4785.13,6322.91 -4785.13,5748.74 -9687.24,5748.74 "/>
   </g>
  </g>
  <polygon fill="none" points="-0,0 4597.77,0 4597.77,3899.78 -0,3899.78 "/>
 </g>
</svg>
