<?xml version="1.0" encoding="UTF-8"?>
<!DOCTYPE svg PUBLIC "-//W3C//DTD SVG 1.1//EN" "http://www.w3.org/Graphics/SVG/1.1/DTD/svg11.dtd">
<!-- Creator: CorelDRAW -->
<svg xmlns="http://www.w3.org/2000/svg" xml:space="preserve" width="55.782mm" height="47.3137mm" version="1.1" shape-rendering="geometricPrecision" text-rendering="geometricPrecision" image-rendering="optimizeQuality" fill-rule="evenodd" clip-rule="evenodd"
viewBox="0 0 6068.89 5147.57"
 xmlns:xlink="http://www.w3.org/1999/xlink"
 xmlns:xodm="http://www.corel.com/coreldraw/odm/2003">
 <defs>
   <clipPath id="id0">
    <path d="M-0 0l6068.89 0 0 5147.57 -6068.89 0 0 -5147.57z"/>
   </clipPath>
 </defs>
 <g id="Camada_x0020_1">
  <metadata id="CorelCorpID_0Corel-Layer"/>
  <g>
  </g>
  <g clip-path="url(#id0)">
   <g id="_2623616974608">
    <g>
     <g>
      <polygon fill="none" fill-rule="nonzero" stroke="#63858E" stroke-width="9.6" stroke-miterlimit="10" points="1731.97,-57.68 1551.08,46.75 2085.88,358.06 1551.04,666.84 1016.28,358.06 835.38,462.49 417.65,703.67 1551.04,1358.03 2684.43,703.67 2684.43,8.17 2149.67,-298.88 "/>
      <polygon fill="none" fill-rule="nonzero" stroke="#63858E" stroke-width="9.6" stroke-miterlimit="10" points="1370.11,57.69 1550.99,-46.74 1016.19,-358.05 1551.04,-666.83 2085.79,-358.05 2266.69,-462.48 2684.43,-703.67 1551.04,-1358.03 417.64,-703.67 417.64,-8.17 952.41,298.88 "/>
     </g>
     <g>
      <polygon fill="none" fill-rule="nonzero" stroke="#63858E" stroke-width="9.6" stroke-miterlimit="10" points="4766.41,-57.68 4585.53,46.75 5120.33,358.06 4585.48,666.84 4050.73,358.06 3869.83,462.49 3452.1,703.67 4585.48,1358.03 5718.87,703.67 5718.87,8.17 5184.12,-298.88 "/>
      <polygon fill="none" fill-rule="nonzero" stroke="#63858E" stroke-width="9.6" stroke-miterlimit="10" points="4404.56,57.69 4585.44,-46.74 4050.64,-358.05 4585.48,-666.83 5120.24,-358.05 5301.14,-462.48 5718.87,-703.67 4585.48,-1358.03 3452.09,-703.67 3452.09,-8.17 3986.85,298.88 "/>
     </g>
     <g>
      <polygon fill="none" fill-rule="nonzero" stroke="#63858E" stroke-width="9.6" stroke-miterlimit="10" points="180.94,2516.1 0.04,2620.53 534.84,2931.84 0.01,3240.62 -534.76,2931.84 -715.64,3036.28 -1133.39,3277.46 0.01,3931.82 1133.4,3277.46 1133.4,2581.96 598.63,2274.91 "/>
      <polygon fill="none" fill-rule="nonzero" stroke="#63858E" stroke-width="9.6" stroke-miterlimit="10" points="-180.93,2631.48 -0.03,2527.04 -534.83,2215.74 -0,1906.97 534.77,2215.74 715.65,2111.31 1133.4,1870.12 -0,1215.76 -1133.39,1870.12 -1133.39,2565.62 -598.62,2872.67 "/>
     </g>
     <g>
      <polygon fill="none" fill-rule="nonzero" stroke="#63858E" stroke-width="9.6" stroke-miterlimit="10" points="1731.97,5089.89 1551.08,5194.32 2085.88,5505.63 1551.04,5814.41 1016.28,5505.63 835.38,5610.07 417.65,5851.25 1551.04,6505.6 2684.43,5851.25 2684.43,5155.74 2149.67,4848.7 "/>
      <polygon fill="none" fill-rule="nonzero" stroke="#63858E" stroke-width="9.6" stroke-miterlimit="10" points="1370.11,5205.27 1550.99,5100.83 1016.19,4789.52 1551.04,4480.75 2085.79,4789.52 2266.69,4685.09 2684.43,4443.91 1551.04,3789.54 417.64,4443.91 417.64,5139.4 952.41,5446.46 "/>
     </g>
     <g>
      <polygon fill="none" fill-rule="nonzero" stroke="#63858E" stroke-width="9.6" stroke-miterlimit="10" points="3215.35,2516.1 3034.47,2620.53 3569.27,2931.84 3034.43,3240.62 2499.67,2931.84 2318.77,3036.28 1901.04,3277.46 3034.43,3931.82 4167.83,3277.46 4167.83,2581.96 3633.06,2274.91 "/>
      <polygon fill="none" fill-rule="nonzero" stroke="#63858E" stroke-width="9.6" stroke-miterlimit="10" points="2853.5,2631.48 3034.39,2527.04 2499.59,2215.74 3034.43,1906.97 3569.19,2215.74 3750.08,2111.31 4167.83,1870.12 3034.43,1215.76 1901.04,1870.12 1901.04,2565.62 2435.8,2872.67 "/>
     </g>
     <g>
      <polygon fill="none" fill-rule="nonzero" stroke="#63858E" stroke-width="9.6" stroke-miterlimit="10" points="4766.41,5089.89 4585.53,5194.32 5120.33,5505.63 4585.48,5814.41 4050.73,5505.63 3869.83,5610.07 3452.1,5851.25 4585.48,6505.6 5718.87,5851.25 5718.87,5155.74 5184.12,4848.7 "/>
      <polygon fill="none" fill-rule="nonzero" stroke="#63858E" stroke-width="9.6" stroke-miterlimit="10" points="4404.56,5205.27 4585.44,5100.83 4050.64,4789.52 4585.48,4480.75 5120.24,4789.52 5301.14,4685.09 5718.87,4443.91 4585.48,3789.54 3452.09,4443.91 3452.09,5139.4 3986.85,5446.46 "/>
     </g>
     <g>
      <polygon fill="none" fill-rule="nonzero" stroke="#63858E" stroke-width="9.6" stroke-miterlimit="10" points="6249.82,2516.1 6068.94,2620.53 6603.74,2931.84 6068.89,3240.62 5534.14,2931.84 5353.24,3036.28 4935.47,3277.46 6068.89,3931.82 7202.29,3277.46 7202.29,2581.96 6667.53,2274.91 "/>
      <polygon fill="none" fill-rule="nonzero" stroke="#63858E" stroke-width="9.6" stroke-miterlimit="10" points="5887.97,2631.48 6068.86,2527.04 5534.06,2215.74 6068.89,1906.97 6603.66,2215.74 6784.55,2111.31 7202.29,1870.12 6068.89,1215.76 4935.51,1870.12 4935.51,2565.62 5470.27,2872.67 "/>
     </g>
    </g>
    <polygon fill="#63858E" fill-rule="nonzero" points="13072.97,8346.02 6602.35,8346.02 6602.35,7588.14 13072.97,7588.14 "/>
    <polygon fill="#A6B4B7" fill-rule="nonzero" points="13068.25,8346.02 19525.59,8346.02 19525.59,7588.14 13068.25,7588.14 "/>
    <polygon fill="#4E6982" fill-rule="nonzero" points="136.41,8346.02 -6334.21,8346.02 -6334.21,7588.14 136.41,7588.14 "/>
    <polygon fill="#072959" fill-rule="nonzero" points="6602.35,8346.02 131.73,8346.02 131.73,7588.14 6602.35,7588.14 "/>
    <polygon fill="#CCCCCA" fill-rule="nonzero" points="-12786.83,8346.02 -6316.21,8346.02 -6316.21,7588.14 -12786.83,7588.14 "/>
   </g>
  </g>
  <polygon fill="none" points="-0,0 6068.89,0 6068.89,5147.57 -0,5147.57 "/>
 </g>
</svg>
