<?xml version="1.0" encoding="UTF-8"?>
<!DOCTYPE svg PUBLIC "-//W3C//DTD SVG 1.1//EN" "http://www.w3.org/Graphics/SVG/1.1/DTD/svg11.dtd">
<!-- Creator: CorelDRAW -->
<svg xmlns="http://www.w3.org/2000/svg" xml:space="preserve" width="55.782mm" height="47.3137mm" version="1.1" shape-rendering="geometricPrecision" text-rendering="geometricPrecision" image-rendering="optimizeQuality" fill-rule="evenodd" clip-rule="evenodd"
viewBox="0 0 935.51 793.49"
 xmlns:xlink="http://www.w3.org/1999/xlink"
 xmlns:xodm="http://www.corel.com/coreldraw/odm/2003">
 <defs>
   <clipPath id="id0">
    <path d="M-0 0l935.51 0 0 793.49 -935.51 0 0 -793.49z"/>
   </clipPath>
 </defs>
 <g id="Camada_x0020_1">
  <metadata id="CorelCorpID_0Corel-Layer"/>
  <g>
  </g>
  <g clip-path="url(#id0)">
   <g id="_2623833372016">
    <g>
     <g>
      <polygon fill="none" fill-rule="nonzero" stroke="black" stroke-width="1.48" stroke-miterlimit="10" points="266.98,-8.89 239.1,7.21 321.53,55.19 239.09,102.79 156.66,55.19 128.77,71.29 64.38,108.47 239.09,209.34 413.8,108.47 413.8,1.26 331.37,-46.07 "/>
      <polygon fill="none" fill-rule="nonzero" stroke="black" stroke-width="1.48" stroke-miterlimit="10" points="211.2,8.89 239.08,-7.2 156.64,-55.19 239.09,-102.79 321.52,-55.19 349.41,-71.29 413.8,-108.47 239.09,-209.34 64.38,-108.47 64.38,-1.26 146.81,46.07 "/>
     </g>
     <g>
      <polygon fill="none" fill-rule="nonzero" stroke="black" stroke-width="1.48" stroke-miterlimit="10" points="734.73,-8.89 706.85,7.21 789.29,55.19 706.84,102.79 624.41,55.19 596.53,71.29 532.13,108.47 706.84,209.34 881.55,108.47 881.55,1.26 799.12,-46.07 "/>
      <polygon fill="none" fill-rule="nonzero" stroke="black" stroke-width="1.48" stroke-miterlimit="10" points="678.95,8.89 706.84,-7.2 624.4,-55.19 706.84,-102.79 789.27,-55.19 817.16,-71.29 881.55,-108.47 706.84,-209.34 532.13,-108.47 532.13,-1.26 614.56,46.07 "/>
     </g>
     <g>
      <polygon fill="none" fill-rule="nonzero" stroke="black" stroke-width="1.48" stroke-miterlimit="10" points="27.89,387.85 0.01,403.95 82.45,451.94 0,499.53 -82.43,451.94 -110.31,468.03 -174.71,505.21 0,606.08 174.71,505.21 174.71,398 92.28,350.67 "/>
      <polygon fill="none" fill-rule="nonzero" stroke="black" stroke-width="1.48" stroke-miterlimit="10" points="-27.89,405.64 -0.01,389.54 -82.44,341.55 -0,293.95 82.43,341.55 110.32,325.45 174.71,288.27 -0,187.41 -174.71,288.27 -174.71,395.48 -92.28,442.81 "/>
     </g>
     <g>
      <polygon fill="none" fill-rule="nonzero" stroke="black" stroke-width="1.48" stroke-miterlimit="10" points="266.98,784.59 239.1,800.69 321.53,848.68 239.09,896.28 156.66,848.68 128.77,864.78 64.38,901.96 239.09,1002.82 413.8,901.96 413.8,794.75 331.37,747.42 "/>
      <polygon fill="none" fill-rule="nonzero" stroke="black" stroke-width="1.48" stroke-miterlimit="10" points="211.2,802.38 239.08,786.28 156.64,738.29 239.09,690.7 321.52,738.29 349.41,722.2 413.8,685.02 239.09,584.15 64.38,685.02 64.38,792.23 146.81,839.56 "/>
     </g>
     <g>
      <polygon fill="none" fill-rule="nonzero" stroke="black" stroke-width="1.48" stroke-miterlimit="10" points="495.64,387.85 467.76,403.95 550.19,451.94 467.75,499.53 385.32,451.94 357.43,468.03 293.04,505.21 467.75,606.08 642.46,505.21 642.46,398 560.03,350.67 "/>
      <polygon fill="none" fill-rule="nonzero" stroke="black" stroke-width="1.48" stroke-miterlimit="10" points="439.86,405.64 467.74,389.54 385.31,341.55 467.75,293.95 550.18,341.55 578.07,325.45 642.46,288.27 467.75,187.41 293.04,288.27 293.04,395.48 375.47,442.81 "/>
     </g>
     <g>
      <polygon fill="none" fill-rule="nonzero" stroke="black" stroke-width="1.48" stroke-miterlimit="10" points="734.73,784.59 706.85,800.69 789.29,848.68 706.84,896.28 624.41,848.68 596.53,864.78 532.13,901.96 706.84,1002.82 881.55,901.96 881.55,794.75 799.12,747.42 "/>
      <polygon fill="none" fill-rule="nonzero" stroke="black" stroke-width="1.48" stroke-miterlimit="10" points="678.95,802.38 706.84,786.28 624.4,738.29 706.84,690.7 789.27,738.29 817.16,722.2 881.55,685.02 706.84,584.15 532.13,685.02 532.13,792.23 614.56,839.56 "/>
     </g>
     <g>
      <polygon fill="none" fill-rule="nonzero" stroke="black" stroke-width="1.48" stroke-miterlimit="10" points="963.4,387.85 935.51,403.95 1017.95,451.94 935.51,499.53 853.07,451.94 825.19,468.03 760.79,505.21 935.51,606.08 1110.22,505.21 1110.22,398 1027.78,350.67 "/>
      <polygon fill="none" fill-rule="nonzero" stroke="black" stroke-width="1.48" stroke-miterlimit="10" points="907.62,405.64 935.5,389.54 853.06,341.55 935.51,293.95 1017.94,341.55 1045.82,325.45 1110.22,288.27 935.51,187.41 760.8,288.27 760.8,395.48 843.23,442.81 "/>
     </g>
    </g>
    <polygon fill="#63858E" fill-rule="nonzero" points="2015.17,1286.52 1017.74,1286.52 1017.74,1169.69 2015.17,1169.69 "/>
    <polygon fill="#A6B4B7" fill-rule="nonzero" points="2014.44,1286.52 3009.82,1286.52 3009.82,1169.69 2014.44,1169.69 "/>
    <polygon fill="#4E6982" fill-rule="nonzero" points="21.03,1286.52 -976.4,1286.52 -976.4,1169.69 21.03,1169.69 "/>
    <polygon fill="#072959" fill-rule="nonzero" points="1017.74,1286.52 20.31,1286.52 20.31,1169.69 1017.74,1169.69 "/>
    <polygon fill="#CCCCCA" fill-rule="nonzero" points="-1971.06,1286.52 -973.63,1286.52 -973.63,1169.69 -1971.06,1169.69 "/>
   </g>
  </g>
  <polygon fill="none" points="-0,0 935.51,0 935.51,793.49 -0,793.49 "/>
 </g>
</svg>
