<?xml version="1.0" encoding="UTF-8"?>
<!DOCTYPE svg PUBLIC "-//W3C//DTD SVG 1.1//EN" "http://www.w3.org/Graphics/SVG/1.1/DTD/svg11.dtd">
<!-- Creator: CorelDRAW -->
<svg xmlns="http://www.w3.org/2000/svg" xml:space="preserve" width="55.782mm" height="47.3137mm" version="1.1" shape-rendering="geometricPrecision" text-rendering="geometricPrecision" image-rendering="optimizeQuality" fill-rule="evenodd" clip-rule="evenodd"
viewBox="0 0 1019.68 864.88"
 xmlns:xlink="http://www.w3.org/1999/xlink"
 xmlns:xodm="http://www.corel.com/coreldraw/odm/2003">
 <defs>
   <clipPath id="id0">
    <path d="M-0 0l1019.68 0 0 864.88 -1019.68 0 0 -864.88z"/>
   </clipPath>
 </defs>
 <g id="Camada_x0020_1">
  <metadata id="CorelCorpID_0Corel-Layer"/>
  <g>
  </g>
  <g clip-path="url(#id0)">
   <g id="_2623621450080">
    <g>
     <g>
      <polygon fill="none" fill-rule="nonzero" stroke="#CCCCCA" stroke-width="1.61" stroke-miterlimit="10" points="291,-9.69 260.61,7.85 350.46,60.16 260.6,112.04 170.75,60.16 140.36,77.71 70.17,118.23 260.6,228.17 451.03,118.23 451.03,1.37 361.18,-50.22 "/>
      <polygon fill="none" fill-rule="nonzero" stroke="#CCCCCA" stroke-width="1.61" stroke-miterlimit="10" points="230.2,9.69 260.59,-7.85 170.74,-60.16 260.6,-112.04 350.45,-60.16 380.84,-77.71 451.03,-118.23 260.6,-228.17 70.17,-118.23 70.17,-1.37 160.02,50.22 "/>
     </g>
     <g>
      <polygon fill="none" fill-rule="nonzero" stroke="#CCCCCA" stroke-width="1.61" stroke-miterlimit="10" points="800.84,-9.69 770.45,7.85 860.3,60.16 770.44,112.04 680.59,60.16 650.2,77.71 580.01,118.23 770.44,228.17 960.87,118.23 960.87,1.37 871.02,-50.22 "/>
      <polygon fill="none" fill-rule="nonzero" stroke="#CCCCCA" stroke-width="1.61" stroke-miterlimit="10" points="740.04,9.69 770.43,-7.85 680.58,-60.16 770.44,-112.04 860.29,-60.16 890.68,-77.71 960.87,-118.23 770.44,-228.17 580.01,-118.23 580.01,-1.37 669.86,50.22 "/>
     </g>
     <g>
      <polygon fill="none" fill-rule="nonzero" stroke="#CCCCCA" stroke-width="1.61" stroke-miterlimit="10" points="30.4,422.75 0.01,440.29 89.86,492.6 0,544.48 -89.85,492.6 -120.24,510.15 -190.43,550.67 0,660.61 190.43,550.67 190.43,433.81 100.58,382.22 "/>
      <polygon fill="none" fill-rule="nonzero" stroke="#CCCCCA" stroke-width="1.61" stroke-miterlimit="10" points="-30.4,442.13 -0.01,424.59 -89.86,372.28 -0,320.4 89.85,372.28 120.24,354.74 190.43,314.21 -0,204.27 -190.43,314.21 -190.43,431.07 -100.58,482.66 "/>
     </g>
     <g>
      <polygon fill="none" fill-rule="nonzero" stroke="#CCCCCA" stroke-width="1.61" stroke-miterlimit="10" points="291,855.19 260.61,872.74 350.46,925.04 260.6,976.92 170.75,925.04 140.36,942.59 70.17,983.11 260.6,1093.05 451.03,983.11 451.03,866.25 361.18,814.67 "/>
      <polygon fill="none" fill-rule="nonzero" stroke="#CCCCCA" stroke-width="1.61" stroke-miterlimit="10" points="230.2,874.58 260.59,857.03 170.74,804.72 260.6,752.84 350.45,804.72 380.84,787.18 451.03,746.65 260.6,636.71 70.17,746.65 70.17,863.51 160.02,915.1 "/>
     </g>
     <g>
      <polygon fill="none" fill-rule="nonzero" stroke="#CCCCCA" stroke-width="1.61" stroke-miterlimit="10" points="540.24,422.75 509.84,440.29 599.7,492.6 509.84,544.48 419.99,492.6 389.59,510.15 319.41,550.67 509.84,660.61 700.27,550.67 700.27,433.81 610.42,382.22 "/>
      <polygon fill="none" fill-rule="nonzero" stroke="#CCCCCA" stroke-width="1.61" stroke-miterlimit="10" points="479.44,442.13 509.83,424.59 419.97,372.28 509.84,320.4 599.69,372.28 630.08,354.74 700.27,314.21 509.84,204.27 319.41,314.21 319.41,431.07 409.26,482.66 "/>
     </g>
     <g>
      <polygon fill="none" fill-rule="nonzero" stroke="#CCCCCA" stroke-width="1.61" stroke-miterlimit="10" points="800.84,855.19 770.45,872.74 860.3,925.04 770.44,976.92 680.59,925.04 650.2,942.59 580.01,983.11 770.44,1093.05 960.87,983.11 960.87,866.25 871.02,814.67 "/>
      <polygon fill="none" fill-rule="nonzero" stroke="#CCCCCA" stroke-width="1.61" stroke-miterlimit="10" points="740.04,874.58 770.43,857.03 680.58,804.72 770.44,752.84 860.29,804.72 890.68,787.18 960.87,746.65 770.44,636.71 580.01,746.65 580.01,863.51 669.86,915.1 "/>
     </g>
     <g>
      <polygon fill="none" fill-rule="nonzero" stroke="#CCCCCA" stroke-width="1.61" stroke-miterlimit="10" points="1050.08,422.75 1019.69,440.29 1109.54,492.6 1019.68,544.48 929.83,492.6 899.44,510.15 829.25,550.67 1019.68,660.61 1210.11,550.67 1210.11,433.81 1120.26,382.22 "/>
      <polygon fill="none" fill-rule="nonzero" stroke="#CCCCCA" stroke-width="1.61" stroke-miterlimit="10" points="989.28,442.13 1019.67,424.59 929.82,372.28 1019.68,320.4 1109.53,372.28 1139.92,354.74 1210.11,314.21 1019.68,204.27 829.25,314.21 829.25,431.07 919.1,482.66 "/>
     </g>
    </g>
    <polygon fill="#63858E" fill-rule="nonzero" points="2196.49,1402.28 1109.31,1402.28 1109.31,1274.94 2196.49,1274.94 "/>
    <polygon fill="#A6B4B7" fill-rule="nonzero" points="2195.69,1402.28 3280.64,1402.28 3280.64,1274.94 2195.69,1274.94 "/>
    <polygon fill="#4E6982" fill-rule="nonzero" points="22.92,1402.28 -1064.26,1402.28 -1064.26,1274.94 22.92,1274.94 "/>
    <polygon fill="#072959" fill-rule="nonzero" points="1109.31,1402.28 22.13,1402.28 22.13,1274.94 1109.31,1274.94 "/>
    <polygon fill="#CCCCCA" fill-rule="nonzero" points="-2148.41,1402.28 -1061.23,1402.28 -1061.23,1274.94 -2148.41,1274.94 "/>
   </g>
  </g>
  <polygon fill="none" points="-0,0 1019.68,0 1019.68,864.88 -0,864.88 "/>
 </g>
</svg>
