<?xml version="1.0" encoding="UTF-8"?>
<!DOCTYPE svg PUBLIC "-//W3C//DTD SVG 1.1//EN" "http://www.w3.org/Graphics/SVG/1.1/DTD/svg11.dtd">
<!-- Creator: CorelDRAW -->
<svg xmlns="http://www.w3.org/2000/svg" xml:space="preserve" width="55.782mm" height="47.3137mm" version="1.1" shape-rendering="geometricPrecision" text-rendering="geometricPrecision" image-rendering="optimizeQuality" fill-rule="evenodd" clip-rule="evenodd"
viewBox="0 0 1830.24 1552.39"
 xmlns:xlink="http://www.w3.org/1999/xlink"
 xmlns:xodm="http://www.corel.com/coreldraw/odm/2003">
 <defs>
   <clipPath id="id0">
    <path d="M-0 0l1830.24 0 0 1552.39 -1830.24 0 0 -1552.39z"/>
   </clipPath>
 </defs>
 <g id="Camada_x0020_1">
  <metadata id="CorelCorpID_0Corel-Layer"/>
  <g>
  </g>
  <g clip-path="url(#id0)">
   <g id="_2623710477232">
    <g>
     <g>
      <polygon fill="none" fill-rule="nonzero" stroke="#A6B4B7" stroke-width="2.89" stroke-miterlimit="10" points="522.32,-17.4 467.77,14.1 629.06,107.98 467.76,201.1 306.49,107.98 251.93,139.48 125.95,212.21 467.76,409.55 809.56,212.21 809.56,2.46 648.29,-90.13 "/>
      <polygon fill="none" fill-rule="nonzero" stroke="#A6B4B7" stroke-width="2.89" stroke-miterlimit="10" points="413.19,17.4 467.74,-14.1 306.46,-107.98 467.76,-201.1 629.03,-107.98 683.58,-139.47 809.56,-212.21 467.76,-409.55 125.95,-212.21 125.95,-2.46 287.22,90.13 "/>
     </g>
     <g>
      <polygon fill="none" fill-rule="nonzero" stroke="#A6B4B7" stroke-width="2.89" stroke-miterlimit="10" points="1437.44,-17.4 1382.89,14.1 1544.18,107.98 1382.88,201.1 1221.61,107.98 1167.05,139.48 1041.07,212.21 1382.88,409.55 1724.68,212.21 1724.68,2.46 1563.41,-90.13 "/>
      <polygon fill="none" fill-rule="nonzero" stroke="#A6B4B7" stroke-width="2.89" stroke-miterlimit="10" points="1328.32,17.4 1382.87,-14.1 1221.58,-107.98 1382.88,-201.1 1544.15,-107.98 1598.7,-139.47 1724.68,-212.21 1382.88,-409.55 1041.07,-212.21 1041.07,-2.46 1202.35,90.13 "/>
     </g>
     <g>
      <polygon fill="none" fill-rule="nonzero" stroke="#A6B4B7" stroke-width="2.89" stroke-miterlimit="10" points="54.57,758.8 0.01,790.29 161.3,884.18 0,977.3 -161.27,884.18 -215.82,915.67 -341.8,988.41 0,1185.75 341.81,988.41 341.81,778.66 180.53,686.06 "/>
      <polygon fill="none" fill-rule="nonzero" stroke="#A6B4B7" stroke-width="2.89" stroke-miterlimit="10" points="-54.56,793.59 -0.01,762.1 -161.29,668.22 -0,575.1 161.27,668.22 215.83,636.72 341.81,563.99 -0,366.65 -341.8,563.99 -341.8,773.73 -180.53,866.33 "/>
     </g>
     <g>
      <polygon fill="none" fill-rule="nonzero" stroke="#A6B4B7" stroke-width="2.89" stroke-miterlimit="10" points="522.32,1535 467.77,1566.49 629.06,1660.38 467.76,1753.49 306.49,1660.38 251.93,1691.87 125.95,1764.6 467.76,1961.94 809.56,1764.6 809.56,1554.86 648.29,1462.26 "/>
      <polygon fill="none" fill-rule="nonzero" stroke="#A6B4B7" stroke-width="2.89" stroke-miterlimit="10" points="413.19,1569.79 467.74,1538.3 306.46,1444.41 467.76,1351.29 629.03,1444.41 683.58,1412.92 809.56,1340.18 467.76,1142.84 125.95,1340.18 125.95,1549.93 287.22,1642.53 "/>
     </g>
     <g>
      <polygon fill="none" fill-rule="nonzero" stroke="#A6B4B7" stroke-width="2.89" stroke-miterlimit="10" points="969.68,758.8 915.13,790.29 1076.41,884.18 915.11,977.3 753.84,884.18 699.29,915.67 573.31,988.41 915.11,1185.75 1256.92,988.41 1256.92,778.66 1095.65,686.06 "/>
      <polygon fill="none" fill-rule="nonzero" stroke="#A6B4B7" stroke-width="2.89" stroke-miterlimit="10" points="860.55,793.59 915.1,762.1 753.82,668.22 915.11,575.1 1076.39,668.22 1130.94,636.72 1256.92,563.99 915.11,366.65 573.31,563.99 573.31,773.73 734.58,866.33 "/>
     </g>
     <g>
      <polygon fill="none" fill-rule="nonzero" stroke="#A6B4B7" stroke-width="2.89" stroke-miterlimit="10" points="1437.44,1535 1382.89,1566.49 1544.18,1660.38 1382.88,1753.49 1221.61,1660.38 1167.05,1691.87 1041.07,1764.6 1382.88,1961.94 1724.68,1764.6 1724.68,1554.86 1563.41,1462.26 "/>
      <polygon fill="none" fill-rule="nonzero" stroke="#A6B4B7" stroke-width="2.89" stroke-miterlimit="10" points="1328.32,1569.79 1382.87,1538.3 1221.58,1444.41 1382.88,1351.29 1544.15,1444.41 1598.7,1412.92 1724.68,1340.18 1382.88,1142.84 1041.07,1340.18 1041.07,1549.93 1202.35,1642.53 "/>
     </g>
     <g>
      <polygon fill="none" fill-rule="nonzero" stroke="#A6B4B7" stroke-width="2.89" stroke-miterlimit="10" points="1884.81,758.8 1830.26,790.29 1991.54,884.18 1830.24,977.3 1668.97,884.18 1614.42,915.67 1488.43,988.41 1830.24,1185.75 2172.05,988.41 2172.05,778.66 2010.78,686.06 "/>
      <polygon fill="none" fill-rule="nonzero" stroke="#A6B4B7" stroke-width="2.89" stroke-miterlimit="10" points="1775.68,793.59 1830.23,762.1 1668.95,668.22 1830.24,575.1 1991.52,668.22 2046.07,636.72 2172.05,563.99 1830.24,366.65 1488.44,563.99 1488.44,773.73 1649.71,866.33 "/>
     </g>
    </g>
    <polygon fill="#63858E" fill-rule="nonzero" points="3942.51,2516.97 1991.12,2516.97 1991.12,2288.41 3942.51,2288.41 "/>
    <polygon fill="#A6B4B7" fill-rule="nonzero" points="3941.09,2516.97 5888.48,2516.97 5888.48,2288.41 3941.09,2288.41 "/>
    <polygon fill="#4E6982" fill-rule="nonzero" points="41.14,2516.97 -1910.25,2516.97 -1910.25,2288.41 41.14,2288.41 "/>
    <polygon fill="#072959" fill-rule="nonzero" points="1991.12,2516.97 39.73,2516.97 39.73,2288.41 1991.12,2288.41 "/>
    <polygon fill="#CCCCCA" fill-rule="nonzero" points="-3856.22,2516.97 -1904.83,2516.97 -1904.83,2288.41 -3856.22,2288.41 "/>
   </g>
  </g>
  <polygon fill="none" points="-0,0 1830.24,0 1830.24,1552.39 -0,1552.39 "/>
 </g>
</svg>
