<?xml version="1.0" encoding="UTF-8"?>
<!DOCTYPE svg PUBLIC "-//W3C//DTD SVG 1.1//EN" "http://www.w3.org/Graphics/SVG/1.1/DTD/svg11.dtd">
<!-- Creator: CorelDRAW -->
<svg xmlns="http://www.w3.org/2000/svg" xml:space="preserve" width="55.782mm" height="47.3137mm" version="1.1" shape-rendering="geometricPrecision" text-rendering="geometricPrecision" image-rendering="optimizeQuality" fill-rule="evenodd" clip-rule="evenodd"
viewBox="0 0 2272.42 1927.44"
 xmlns:xlink="http://www.w3.org/1999/xlink"
 xmlns:xodm="http://www.corel.com/coreldraw/odm/2003">
 <defs>
   <clipPath id="id0">
    <path d="M-0 0l2272.42 0 0 1927.44 -2272.42 0 0 -1927.44z"/>
   </clipPath>
 </defs>
 <g id="Camada_x0020_1">
  <metadata id="CorelCorpID_0Corel-Layer"/>
  <g>
  </g>
  <g clip-path="url(#id0)">
   <g id="_2053277207168">
    <g>
     <g>
      <polygon fill="none" fill-rule="nonzero" stroke="#CCCCCA" stroke-width="3.59" stroke-miterlimit="10" points="648.51,-21.6 580.78,17.5 781.03,134.07 580.77,249.69 380.53,134.07 312.8,173.18 156.38,263.48 580.77,508.5 1005.15,263.48 1005.15,3.06 804.92,-111.91 "/>
      <polygon fill="none" fill-rule="nonzero" stroke="#CCCCCA" stroke-width="3.59" stroke-miterlimit="10" points="513.02,21.6 580.75,-17.5 380.5,-134.07 580.77,-249.68 781,-134.07 848.73,-173.17 1005.15,-263.48 580.77,-508.5 156.38,-263.48 156.38,-3.06 356.62,111.91 "/>
     </g>
     <g>
      <polygon fill="none" fill-rule="nonzero" stroke="#CCCCCA" stroke-width="3.59" stroke-miterlimit="10" points="1784.72,-21.6 1716.99,17.5 1917.24,134.07 1716.98,249.69 1516.74,134.07 1449.01,173.18 1292.59,263.48 1716.98,508.5 2141.36,263.48 2141.36,3.06 1941.13,-111.91 "/>
      <polygon fill="none" fill-rule="nonzero" stroke="#CCCCCA" stroke-width="3.59" stroke-miterlimit="10" points="1649.23,21.6 1716.96,-17.5 1516.71,-134.07 1716.98,-249.68 1917.21,-134.07 1984.94,-173.17 2141.36,-263.48 1716.98,-508.5 1292.59,-263.48 1292.59,-3.06 1492.83,111.91 "/>
     </g>
     <g>
      <polygon fill="none" fill-rule="nonzero" stroke="#CCCCCA" stroke-width="3.59" stroke-miterlimit="10" points="67.75,942.12 0.02,981.22 200.27,1097.79 0,1213.41 -200.23,1097.79 -267.96,1136.9 -424.38,1227.2 0,1472.22 424.39,1227.2 424.39,966.78 224.15,851.81 "/>
      <polygon fill="none" fill-rule="nonzero" stroke="#CCCCCA" stroke-width="3.59" stroke-miterlimit="10" points="-67.75,985.32 -0.01,946.22 -200.26,829.66 -0,714.04 200.24,829.66 267.97,790.55 424.39,700.24 -0,455.23 -424.38,700.24 -424.38,960.66 -224.15,1075.63 "/>
     </g>
     <g>
      <polygon fill="none" fill-rule="nonzero" stroke="#CCCCCA" stroke-width="3.59" stroke-miterlimit="10" points="648.51,1905.84 580.78,1944.95 781.03,2061.52 580.77,2177.13 380.53,2061.52 312.8,2100.62 156.38,2190.93 580.77,2435.94 1005.15,2190.93 1005.15,1930.5 804.92,1815.53 "/>
      <polygon fill="none" fill-rule="nonzero" stroke="#CCCCCA" stroke-width="3.59" stroke-miterlimit="10" points="513.02,1949.05 580.75,1909.94 380.5,1793.38 580.77,1677.76 781,1793.38 848.73,1754.27 1005.15,1663.97 580.77,1418.95 156.38,1663.97 156.38,1924.38 356.62,2039.36 "/>
     </g>
     <g>
      <polygon fill="none" fill-rule="nonzero" stroke="#CCCCCA" stroke-width="3.59" stroke-miterlimit="10" points="1203.95,942.12 1136.22,981.22 1336.47,1097.79 1136.2,1213.41 935.97,1097.79 868.24,1136.9 711.82,1227.2 1136.2,1472.22 1560.59,1227.2 1560.59,966.78 1360.35,851.81 "/>
      <polygon fill="none" fill-rule="nonzero" stroke="#CCCCCA" stroke-width="3.59" stroke-miterlimit="10" points="1068.46,985.32 1136.19,946.22 935.94,829.66 1136.2,714.04 1336.44,829.66 1404.17,790.55 1560.59,700.24 1136.2,455.23 711.82,700.24 711.82,960.66 912.06,1075.63 "/>
     </g>
     <g>
      <polygon fill="none" fill-rule="nonzero" stroke="#CCCCCA" stroke-width="3.59" stroke-miterlimit="10" points="1784.72,1905.84 1716.99,1944.95 1917.24,2061.52 1716.98,2177.13 1516.74,2061.52 1449.01,2100.62 1292.59,2190.93 1716.98,2435.94 2141.36,2190.93 2141.36,1930.5 1941.13,1815.53 "/>
      <polygon fill="none" fill-rule="nonzero" stroke="#CCCCCA" stroke-width="3.59" stroke-miterlimit="10" points="1649.23,1949.05 1716.96,1909.94 1516.71,1793.38 1716.98,1677.76 1917.21,1793.38 1984.94,1754.27 2141.36,1663.97 1716.98,1418.95 1292.59,1663.97 1292.59,1924.38 1492.83,2039.36 "/>
     </g>
     <g>
      <polygon fill="none" fill-rule="nonzero" stroke="#CCCCCA" stroke-width="3.59" stroke-miterlimit="10" points="2340.17,942.12 2272.44,981.22 2472.69,1097.79 2272.42,1213.41 2072.19,1097.79 2004.45,1136.9 1848.03,1227.2 2272.42,1472.22 2696.81,1227.2 2696.81,966.78 2496.57,851.81 "/>
      <polygon fill="none" fill-rule="nonzero" stroke="#CCCCCA" stroke-width="3.59" stroke-miterlimit="10" points="2204.68,985.32 2272.41,946.22 2072.16,829.66 2272.42,714.04 2472.66,829.66 2540.39,790.55 2696.81,700.24 2272.42,455.23 1848.04,700.24 1848.04,960.66 2048.28,1075.63 "/>
     </g>
    </g>
    <polygon fill="#63858E" fill-rule="nonzero" points="4895.01,3125.06 2472.17,3125.06 2472.17,2841.28 4895.01,2841.28 "/>
    <polygon fill="#A6B4B7" fill-rule="nonzero" points="4893.24,3125.06 7311.11,3125.06 7311.11,2841.28 4893.24,2841.28 "/>
    <polygon fill="#4E6982" fill-rule="nonzero" points="51.08,3125.06 -2371.76,3125.06 -2371.76,2841.28 51.08,2841.28 "/>
    <polygon fill="#072959" fill-rule="nonzero" points="2472.17,3125.06 49.33,3125.06 49.33,2841.28 2472.17,2841.28 "/>
    <polygon fill="#CCCCCA" fill-rule="nonzero" points="-4787.87,3125.06 -2365.03,3125.06 -2365.03,2841.28 -4787.87,2841.28 "/>
   </g>
  </g>
  <polygon fill="none" points="-0,0 2272.42,0 2272.42,1927.44 -0,1927.44 "/>
 </g>
</svg>
