<?xml version="1.0" encoding="UTF-8"?>
<!DOCTYPE svg PUBLIC "-//W3C//DTD SVG 1.1//EN" "http://www.w3.org/Graphics/SVG/1.1/DTD/svg11.dtd">
<!-- Creator: CorelDRAW -->
<svg xmlns="http://www.w3.org/2000/svg" xml:space="preserve" width="90.9818mm" height="36.4228mm" version="1.1" shape-rendering="geometricPrecision" text-rendering="geometricPrecision" image-rendering="optimizeQuality" fill-rule="evenodd" clip-rule="evenodd"
viewBox="0 0 1197.32 479.32"
 xmlns:xlink="http://www.w3.org/1999/xlink"
 xmlns:xodm="http://www.corel.com/coreldraw/odm/2003">
 <g id="Camada_x0020_1">
  <metadata id="CorelCorpID_0Corel-Layer"/>
  <g id="_2017983478512">
   <path fill="#A6B4B7" fill-rule="nonzero" d="M471.93 212.29c-12.81,-2.01 -23.1,-4.52 -30.88,-7.53l0 -46.33c8.53,3.52 18.51,6.35 29.94,8.47 11.43,2.13 21.9,3.2 31.45,3.2 11.8,0 19.89,-0.57 24.29,-1.7 4.39,-1.13 6.59,-3.83 6.59,-8.1 0,-3.52 -2.13,-6.41 -6.4,-8.66 -4.27,-2.26 -11.81,-5.02 -22.6,-8.29l-16.19 -5.27c-17.58,-6.03 -30.26,-12.99 -38.04,-20.9 -7.79,-7.91 -11.68,-19.02 -11.68,-33.33 0,-36.41 27.62,-54.61 82.86,-54.61 10.79,0 21.72,0.82 32.77,2.45 11.05,1.63 20.34,3.7 27.87,6.22l0 45.57c-6.78,-3.01 -14.63,-5.33 -23.54,-6.96 -8.92,-1.63 -17.27,-2.45 -25.05,-2.45 -11.05,0 -19.34,0.63 -24.86,1.88 -5.52,1.26 -8.29,3.9 -8.29,7.91 0,3.52 1.76,6.09 5.27,7.72 3.51,1.63 10.29,3.96 20.34,6.97 5.02,1.26 10.17,2.77 15.44,4.52 14.06,4.28 24.98,8.85 32.77,13.75 7.78,4.9 13.31,10.74 16.58,17.52 3.26,6.78 4.9,15.32 4.9,25.61 0,18.08 -7.1,31.83 -21.28,41.24 -14.19,9.42 -34.84,14.12 -61.95,14.12 -14.07,0 -27.49,-1.01 -40.3,-3.01z"/>
   <path fill="#A6B4B7" fill-rule="nonzero" d="M739.34 106.83l0 -7.91c0,-19.08 -11.55,-28.62 -34.65,-28.62 -14.31,0 -24.42,2.89 -30.32,8.66 -5.9,5.78 -8.85,15.07 -8.85,27.87l73.82 0zm-102.26 84.75c-18.45,-15.82 -27.68,-38.92 -27.68,-69.3 0,-29.12 7.97,-51.91 23.91,-68.36 15.94,-16.44 39.11,-24.67 69.49,-24.67 27.87,0 49.71,7.28 65.53,21.84 15.82,14.56 23.73,34.15 23.73,58.76l0 32.01 -126.55 0c2.76,11.55 9.03,19.72 18.83,24.48 9.8,4.77 23.85,7.16 42.19,7.16 9.79,0 19.77,-0.88 29.94,-2.64 10.17,-1.75 18.65,-4.02 25.42,-6.78l0 39.54c-17.08,7.79 -40.17,11.68 -69.3,11.68 -31.89,0 -57.06,-7.91 -75.52,-23.73z"/>
   <path fill="#A6B4B7" fill-rule="nonzero" d="M813.54 33.01l56.5 0 1.88 15.44c7.78,-5.52 17.26,-10.1 28.44,-13.75 11.17,-3.63 22.66,-5.46 34.46,-5.46 22.85,0 39.61,5.52 50.28,16.57 10.67,11.05 16.01,28.12 16.01,51.22l0 114.49 -60.64 0 0 -109.6c0,-10.04 -2.2,-17.2 -6.59,-21.47 -4.4,-4.27 -11.99,-6.4 -22.79,-6.4 -6.53,0 -13.19,1.5 -19.96,4.52 -6.78,3.01 -12.43,6.78 -16.94,11.3l0 121.65 -60.64 0 0 -178.52z"/>
   <path fill="#A6B4B7" fill-rule="nonzero" d="M1139.32 160.69l0 -25.23 -42.94 0c-9.04,0 -15.76,1.76 -20.15,5.27 -4.4,3.51 -6.59,8.91 -6.59,16.19 0,14.07 9.28,21.09 27.87,21.09 18.07,0 32.02,-5.77 41.81,-17.33zm-106.4 40.12c-11.93,-9.67 -17.89,-23.54 -17.89,-41.62 0,-18.58 6.34,-33.01 19.02,-43.31 12.67,-10.29 31.2,-15.44 55.55,-15.44l49.72 0 0 -4.14c0,-9.29 -3.08,-15.82 -9.23,-19.59 -6.16,-3.77 -17.39,-5.65 -33.71,-5.65 -20.34,0 -40.3,3.14 -59.88,9.42l0 -39.17c9.04,-3.51 19.96,-6.4 32.77,-8.66 12.8,-2.26 25.99,-3.39 39.55,-3.39 28.37,0 50.22,5.78 65.53,17.33 15.32,11.55 22.98,29.38 22.98,53.48l0 111.48 -53.11 0 -3.01 -15.07c-13.82,12.56 -34.78,18.83 -62.9,18.83 -18.33,0 -33.46,-4.83 -45.38,-14.5z"/>
  </g>
  <path fill="#4E6982" fill-rule="nonzero" d="M543.5 450.08l0 -224.67 52.09 0 0 78.33c5.82,-4.44 13.05,-8.06 21.68,-10.83 8.63,-2.78 17.9,-4.17 27.82,-4.17 20.49,0 35.54,5 45.13,15 9.6,10 14.4,25.33 14.4,46l0 100.33 -52.09 0 0 -96.67c0,-9.11 -1.83,-15.56 -5.5,-19.33 -3.67,-3.78 -10.25,-5.67 -19.74,-5.67 -5.61,0 -11.32,1.33 -17.15,4 -5.82,2.67 -10.68,6 -14.56,10l0 107.67 -52.09 0z"/>
  <path id="_1" fill="#4E6982" fill-rule="nonzero" d="M788.75 453.41c-18.12,0 -32.24,-5.28 -42.38,-15.83 -10.14,-10.56 -15.21,-25.94 -15.21,-46.17l0 -99.33 52.09 0 0 96.33c0,8.89 2.1,15.39 6.31,19.5 4.2,4.11 10.51,6.17 18.93,6.17 6.26,0 12.19,-1.33 17.79,-4 5.61,-2.67 10.25,-6 13.91,-10l0 -108 52.09 0 0 158 -48.53 0 -1.62 -13.33c-6.25,4.89 -13.8,8.89 -22.65,12 -8.84,3.11 -19.09,4.67 -30.74,4.67z"/>
  <path id="_2" fill="#4E6982" fill-rule="nonzero" d="M1021.37 453.41c-10.35,0 -19.41,-1.39 -27.18,-4.17 -7.76,-2.78 -14.77,-6.94 -21.03,-12.5l-2.59 13.33 -45.3 0 0 -224.67 52.09 0 0 74c5.82,-3.55 12.4,-6.22 19.73,-8 7.34,-1.78 14.88,-2.67 22.65,-2.67 22.43,0 40.12,6.39 53.06,19.17 12.94,12.78 19.41,33.39 19.41,61.83 0,28.44 -6.36,49.5 -19.09,63.17 -12.73,13.67 -29.98,20.5 -51.77,20.5zm-14.88 -39c11.65,0 20.01,-3.61 25.07,-10.83 5.07,-7.22 7.6,-18.39 7.6,-33.5 0,-15.56 -2.64,-26.44 -7.92,-32.67 -5.29,-6.22 -13.54,-9.33 -24.75,-9.33 -12.3,0 -22,3.33 -29.12,10l0 64.33c7.77,8 17.47,12 29.12,12z"/>
  <polygon fill="#64818A" points="174.05,115.32 348.1,215.8 348.09,479.32 256.17,426.24 256.17,268.87 174.04,221.46 158.73,230.31 108.13,201.1 108.13,153.37 "/>
  <polygon fill="#FEFEFE" points="256.17,144.02 256.17,53.08 348.09,0 348.09,197.1 "/>
  <g id="_2017983485952">
   <polygon fill="#64818A" points="91.93,335.3 91.93,426.24 0.01,479.32 0,282.23 "/>
   <polygon fill="#FEFEFE" points="174.05,364.01 -0,263.52 0.01,0 91.93,53.08 91.93,210.45 174.06,257.86 189.37,249.02 239.97,278.23 239.97,325.95 "/>
  </g>
 </g>
</svg>
