<?xml version="1.0" encoding="UTF-8"?>
<!DOCTYPE svg PUBLIC "-//W3C//DTD SVG 1.1//EN" "http://www.w3.org/Graphics/SVG/1.1/DTD/svg11.dtd">
<!-- Creator: CorelDRAW -->
<svg xmlns="http://www.w3.org/2000/svg" xml:space="preserve" width="53.2571mm" height="68.6009mm" version="1.1" shape-rendering="geometricPrecision" text-rendering="geometricPrecision" image-rendering="optimizeQuality" fill-rule="evenodd" clip-rule="evenodd"
viewBox="0 0 4353.37 5607.62"
 xmlns:xlink="http://www.w3.org/1999/xlink"
 xmlns:xodm="http://www.corel.com/coreldraw/odm/2003">
 <g id="Camada_x0020_1">
  <metadata id="CorelCorpID_0Corel-Layer"/>
  <g id="_3092135354080">
   <polygon fill="#CCCCCA" points="2129.1,716.28 3210.2,1340.45 3210.14,2977.29 2639.17,2647.58 2639.18,1670.09 2129.05,1375.61 2033.94,1430.54 1719.64,1249.12 1719.64,952.68 "/>
   <polygon fill="#64818A" points="2639.17,894.58 2639.17,329.72 3210.13,0 3210.16,1224.25 "/>
   <g>
    <polygon fill="#CCCCCA" points="1619.02,2082.71 1619.03,2647.58 1048.06,2977.29 1048.02,1753.04 "/>
    <polygon fill="#64818A" points="2129.09,2261.02 1048,1636.85 1048.05,0 1619.02,329.72 1619,1307.2 2129.13,1601.68 2224.25,1546.75 2538.54,1728.18 2538.54,2024.62 "/>
   </g>
  </g>
  <g id="_3092135354416">
   <g>
    <path fill="#CCCCCA" fill-rule="nonzero" d="M192.27 4224.44c-73.47,-11.51 -132.51,-25.94 -177.15,-43.2l0 -265.75c48.95,20.18 106.18,36.41 171.75,48.6 65.54,12.25 125.65,18.38 180.43,18.38 67.67,0 114.11,-3.25 139.33,-9.72 25.17,-6.5 37.81,-21.95 37.81,-46.45 0,-20.16 -12.25,-36.75 -36.72,-49.69 -24.51,-12.97 -67.72,-28.79 -129.64,-47.54l-92.88 -30.25c-100.85,-34.57 -173.59,-74.54 -218.22,-119.89 -44.66,-45.38 -66.98,-109.11 -66.98,-191.21 0,-208.84 158.43,-313.27 475.29,-313.27 61.92,0 124.58,4.68 187.97,14.04 63.38,9.37 116.66,21.24 159.89,35.65l0 261.39c-38.88,-17.26 -83.91,-30.56 -135.02,-39.94 -51.15,-9.34 -99.04,-14.04 -143.68,-14.04 -63.4,0 -110.94,3.6 -142.61,10.78 -31.69,7.24 -47.53,22.34 -47.53,45.38 0,20.18 10.07,34.94 30.25,44.28 20.16,9.38 59.04,22.69 116.67,39.98 28.78,7.22 58.35,15.87 88.58,25.91 80.64,24.52 143.3,50.79 187.96,78.86 44.64,28.09 76.33,61.6 95.08,100.48 18.69,38.88 28.09,87.86 28.09,146.9 0,103.73 -40.72,182.59 -122.07,236.59 -81.38,54.02 -199.84,81.02 -355.39,81.02 -80.7,0 -157.71,-5.79 -231.19,-17.29z"/>
    <path fill="#CCCCCA" fill-rule="nonzero" d="M1726.22 3619.5l0 -45.38c0,-109.44 -66.26,-164.19 -198.77,-164.19 -82.1,0 -140.08,16.56 -173.91,49.7 -33.87,33.13 -50.76,86.42 -50.76,159.86l423.44 0zm-586.58 486.13c-105.86,-90.76 -158.77,-223.26 -158.77,-397.56 0,-167.06 45.69,-297.8 137.17,-392.12 91.45,-94.33 224.32,-141.52 398.62,-141.52 159.86,0 285.17,41.79 375.93,125.3 90.73,83.54 136.11,195.9 136.11,337.05l0 183.64 -725.92 0c15.83,66.26 51.82,113.11 107.99,140.43 56.2,27.38 136.84,41.07 242,41.07 56.17,0 113.43,-5.04 171.75,-15.13 58.35,-10.06 106.95,-23.03 145.84,-38.88l0 226.84c-97.95,44.67 -230.45,66.98 -397.53,66.98 -182.93,0 -327.33,-45.38 -433.19,-136.11z"/>
    <path fill="#CCCCCA" fill-rule="nonzero" d="M2151.84 3196.03l324.08 0 10.81 88.58c44.61,-31.66 99.01,-57.95 163.12,-78.86 64.07,-20.85 129.99,-31.32 197.68,-31.32 131.06,0 227.2,31.69 288.42,95.07 61.23,63.38 91.83,161.33 91.83,293.82l0 656.79 -347.83 0 0 -628.69c0,-57.6 -12.63,-98.67 -37.82,-123.17 -25.22,-24.47 -68.79,-36.73 -130.71,-36.73 -37.47,0 -75.63,8.63 -114.51,25.94 -38.88,17.28 -71.29,38.88 -97.21,64.8l0 697.85 -347.86 0 0 -1024.09z"/>
    <path fill="#CCCCCA" fill-rule="nonzero" d="M4020.66 3928.45l0 -144.75 -246.31 0c-51.85,0 -90.39,10.07 -115.58,30.26 -25.22,20.15 -37.81,51.13 -37.81,92.88 0,80.7 53.26,120.99 159.89,120.99 103.68,0 183.66,-33.11 239.82,-99.38zm-610.36 230.11c-68.42,-55.45 -102.62,-135.05 -102.62,-238.75 0,-106.58 36.36,-189.37 109.12,-248.47 72.7,-59.04 178.96,-88.58 318.67,-88.58l285.2 0 0 -23.75c0,-53.29 -17.66,-90.76 -52.94,-112.36 -35.31,-21.63 -99.76,-32.42 -193.37,-32.42 -116.68,0 -231.16,18.04 -343.52,54.02l0 -224.69c51.84,-20.13 114.51,-36.73 187.96,-49.7 73.45,-12.97 149.08,-19.44 226.85,-19.44 162.74,0 288.06,33.15 375.93,99.38 87.86,66.26 131.8,168.53 131.8,306.8l0 639.51 -304.65 0 -17.26 -86.43c-79.25,72.04 -199.52,108.05 -360.83,108.05 -105.17,0 -191.96,-27.73 -260.34,-83.17z"/>
   </g>
   <path fill="#4E6982" fill-rule="nonzero" d="M602.84 5588.5l0 -1288.76 298.81 0 0 449.35c33.4,-25.5 74.84,-46.21 124.34,-62.14 49.5,-15.94 102.7,-23.9 159.61,-23.9 117.55,0 203.85,28.68 258.91,86.04 55.05,57.37 82.58,145.32 82.58,263.87l0 575.54 -298.81 0 0 -554.51c0,-52.27 -10.51,-89.23 -31.54,-110.9 -21.03,-21.68 -58.77,-32.51 -113.21,-32.51 -32.17,0 -64.96,7.65 -98.37,22.95 -33.41,15.29 -61.24,34.41 -83.51,57.36l0 617.61 -298.81 0z"/>
   <path id="_1" fill="#4E6982" fill-rule="nonzero" d="M2009.64 5607.62c-103.93,0 -184.97,-30.28 -243.13,-90.82 -58.15,-60.55 -87.23,-148.83 -87.23,-264.83l0 -569.8 298.81 0 0 552.6c0,50.99 12.06,88.27 36.19,111.86 24.13,23.58 60.33,35.38 108.57,35.38 35.88,0 69.91,-7.65 102.08,-22.95 32.17,-15.3 58.77,-34.42 79.81,-57.37l0 -619.52 298.81 0 0 906.34 -278.39 0 -9.29 -76.49c-35.88,28.05 -79.18,50.99 -129.91,68.84 -50.73,17.85 -109.49,26.77 -176.32,26.77z"/>
   <path id="_2" fill="#4E6982" fill-rule="nonzero" d="M3344.07 5607.62c-59.39,0 -111.35,-7.96 -155.89,-23.9 -44.55,-15.93 -84.76,-39.83 -120.64,-71.7l-14.85 76.49 -259.83 0 0 -1288.76 298.81 0 0 424.49c33.4,-20.39 71.13,-35.69 113.21,-45.89 42.06,-10.2 85.37,-15.29 129.91,-15.29 128.67,0 230.14,36.65 304.37,109.94 74.24,73.3 111.37,191.53 111.37,354.7 0,163.17 -36.51,283.95 -109.51,362.34 -73,78.4 -171.98,117.59 -296.95,117.59zm-85.37 -223.71c66.82,0 114.77,-20.71 143.84,-62.15 29.08,-41.43 43.62,-105.48 43.62,-192.16 0,-89.23 -15.16,-151.7 -45.47,-187.39 -30.32,-35.7 -77.65,-53.54 -141.99,-53.54 -70.52,0 -126.19,19.12 -167.02,57.37l0 369.04c44.54,45.89 100.22,68.84 167.02,68.84z"/>
  </g>
 </g>
</svg>
