<?xml version="1.0" encoding="UTF-8"?>
<!DOCTYPE svg PUBLIC "-//W3C//DTD SVG 1.1//EN" "http://www.w3.org/Graphics/SVG/1.1/DTD/svg11.dtd">
<!-- Creator: CorelDRAW -->
<svg xmlns="http://www.w3.org/2000/svg" xml:space="preserve" width="68.6458mm" height="26.8711mm" version="1.1" shape-rendering="geometricPrecision" text-rendering="geometricPrecision" image-rendering="optimizeQuality" fill-rule="evenodd" clip-rule="evenodd"
viewBox="0 0 9541.32 3734.91"
 xmlns:xlink="http://www.w3.org/1999/xlink"
 xmlns:xodm="http://www.corel.com/coreldraw/odm/2003">
 <g id="Camada_x0020_1">
  <metadata id="CorelCorpID_0Corel-Layer"/>
  <g id="_2623756748832">
   <g>
    <path fill="#072959" fill-rule="nonzero" d="M3889.11 1911.45c-99.78,-15.64 -180,-35.21 -240.65,-58.7l0 -360.98c66.48,27.41 144.25,49.48 233.34,66.05 89,16.62 170.64,24.96 245.03,24.96 91.93,0 155.05,-4.42 189.27,-13.25 34.22,-8.77 51.39,-29.81 51.39,-63.06 0,-27.41 -16.62,-49.91 -49.91,-67.51 -33.25,-17.61 -91.99,-39.14 -176.08,-64.59l-126.16 -41.09c-137.01,-46.92 -235.82,-101.2 -296.42,-162.84 -60.66,-61.63 -91,-148.22 -91,-259.72 0,-283.66 215.2,-425.51 645.62,-425.51 84.13,0 169.27,6.32 255.32,19.03 86.11,12.79 158.48,28.92 217.22,48.44l0 355.1c-52.86,-23.49 -114,-41.53 -183.43,-54.28 -69.48,-12.7 -134.56,-19.07 -195.16,-19.07 -86.11,0 -150.68,4.89 -193.69,14.65 -43.1,9.81 -64.58,30.36 -64.58,61.64 0,27.41 13.68,47.47 41.1,60.16 27.35,12.76 80.16,30.8 158.47,54.29 39.08,9.8 79.24,21.57 120.33,35.21 109.55,33.29 194.62,68.98 255.33,107.14 60.6,38.14 103.65,83.65 129.1,136.46 25.41,52.8 38.15,119.34 38.15,199.57 0,140.87 -55.31,247.96 -165.79,321.31 -110.57,73.4 -271.5,110.08 -482.78,110.08 -109.6,0 -214.23,-7.84 -314.01,-23.49z"/>
    <path fill="#072959" fill-rule="nonzero" d="M5972.73 1089.74l0 -61.64c0,-148.67 -89.97,-223.06 -269.98,-223.06 -111.54,0 -190.3,22.56 -236.23,67.52 -45.99,45.02 -68.94,117.39 -68.94,217.18l575.15 0zm-796.79 660.33c-143.76,-123.27 -215.65,-303.27 -215.65,-540 0,-226.93 62.07,-404.48 186.32,-532.65 124.26,-128.12 304.7,-192.21 541.44,-192.21 217.22,0 387.42,56.78 510.69,170.2 123.27,113.5 184.86,266.1 184.86,457.82l0 249.44 -986.02 0c21.47,90.03 70.4,153.63 146.71,190.8 76.29,37.17 185.83,55.75 328.66,55.75 76.31,0 154.07,-6.81 233.31,-20.54 79.23,-13.68 145.28,-31.29 198.09,-52.82l0 308.13c-133.09,60.66 -313.04,90.96 -540.02,90.96 -248.45,0 -444.58,-61.63 -588.4,-184.86z"/>
    <path fill="#072959" fill-rule="nonzero" d="M6550.87 514.51l440.22 0 14.66 120.33c60.6,-42.99 134.5,-78.74 221.58,-107.08 87.04,-28.4 176.52,-42.56 268.51,-42.56 178.04,0 308.62,43.05 391.78,129.1 83.16,86.16 124.75,219.14 124.75,399.13l0 892.17 -472.49 0 0 -854.02c0,-78.25 -17.17,-134 -51.34,-167.25 -34.28,-33.3 -93.46,-49.91 -177.59,-49.91 -50.9,0 -102.67,11.72 -155.49,35.19 -52.86,23.49 -96.89,52.82 -132.1,88.07l0 947.92 -472.48 0 0 -1391.09z"/>
    <path fill="#072959" fill-rule="nonzero" d="M9089.36 1509.4l0 -196.63 -334.56 0c-70.46,0 -122.83,13.73 -157.01,41.09 -34.26,27.41 -51.39,69.48 -51.39,126.22 0,109.58 72.37,164.3 217.18,164.3 140.87,0 249.48,-44.95 325.77,-134.98zm-829.05 312.58c-92.97,-75.32 -139.41,-183.43 -139.41,-324.31 0,-144.75 49.38,-257.22 148.18,-337.49 98.81,-80.23 243.11,-120.33 432.92,-120.33l387.36 0 0 -32.27c0,-72.37 -23.98,-123.27 -71.87,-152.64 -48.01,-29.31 -135.53,-44.03 -262.68,-44.03 -158.47,0 -314,24.52 -466.6,73.4l0 -305.23c70.41,-27.37 155.53,-49.87 255.32,-67.47 99.74,-17.61 202.46,-26.44 308.13,-26.44 221.04,0 391.28,45.02 510.63,134.99 119.35,90.03 179.02,228.94 179.02,416.74l0 868.68 -413.8 0 -23.49 -117.39c-107.62,97.88 -271.01,146.76 -490.09,146.76 -142.83,0 -260.77,-37.65 -353.63,-112.97z"/>
   </g>
   <path fill="#64818A" fill-rule="nonzero" d="M3851.33 2491.97c13.93,-13.93 20.95,-33.19 20.95,-57.71 0,-26.03 -6.63,-46.03 -19.86,-60.02 -13.15,-13.97 -32.96,-20.93 -59.38,-20.93l-100.77 0 0 159.61 97.92 0c26.77,0 47.17,-6.96 61.14,-20.95zm34.76 26.34c-21.61,20.58 -51.19,30.84 -88.59,30.84l-105.23 0 0 131.89 -46.44 0 0 -364.57 153.98 0c39.27,0 68.89,10.69 88.89,32.02 20.02,21.34 29.97,49.91 29.97,85.76 0,35.46 -10.84,63.51 -32.57,84.05z"/>
   <path fill="#64818A" fill-rule="nonzero" d="M4450.75 2429.73c0,-50.95 -24.32,-76.45 -73.01,-76.45l-107 0 0 154.02 100.77 0c52.8,0 79.24,-25.89 79.24,-77.57zm26.63 67.08c-13.25,17.55 -32.47,29.31 -57.77,35.35 7.2,4.17 12.65,8.98 16.37,14.47 3.82,5.49 8.15,13.68 13.04,24.62l47.62 109.79 -47.62 0 -46.38 -105.82c-5.34,-12.06 -11.62,-20.4 -18.97,-24.91 -7.35,-4.56 -19.38,-6.82 -35.99,-6.82l-76.95 0 0 137.55 -46.38 0 0 -364.52 160.15 0c38.15,0 66.44,9.91 84.92,29.72 18.49,19.81 27.76,47.66 27.76,83.51 0,27.16 -6.63,49.52 -19.81,67.08z"/>
   <path fill="#64818A" fill-rule="nonzero" d="M5071.13 2411.88c-8.73,-21.67 -21.86,-37.36 -39.67,-46.97 -17.69,-9.62 -40.7,-14.41 -69.04,-14.41 -28.24,0 -51.33,4.8 -69.04,14.41 -17.69,9.6 -30.94,25.3 -39.61,46.97 -8.63,21.72 -13,50.66 -13,86.9 0,36.24 4.36,65.22 13,86.88 8.67,21.72 21.92,37.36 39.61,46.97 17.71,9.62 40.79,14.43 69.04,14.43 28.34,0 51.34,-4.81 69.04,-14.43 17.81,-9.6 30.94,-25.24 39.67,-46.97 8.73,-21.67 13.05,-50.65 13.05,-86.88 0,-36.24 -4.32,-65.17 -13.05,-86.9zm18.39 229.53c-27.35,30.2 -69.72,45.26 -127.1,45.26 -57.36,0 -99.69,-15.05 -127.1,-45.26 -27.31,-30.2 -40.99,-77.73 -40.99,-142.64 0,-64.92 13.68,-112.45 40.99,-142.65 27.41,-30.2 69.73,-45.3 127.1,-45.3 57.38,0 99.74,15.09 127.1,45.3 27.41,30.2 41.1,77.73 41.1,142.65 0,64.91 -13.69,112.43 -41.1,142.64z"/>
   <path fill="#64818A" fill-rule="nonzero" d="M5542.38 2659.26c-18.68,18.29 -46.49,27.47 -83.45,27.47 -29.13,0 -54.58,-4.36 -76.45,-13.05l0 -39.61c9.06,4.17 20.1,7.45 33.09,9.9 13.04,2.46 25.59,3.68 37.71,3.68 25.99,0 44.27,-5.45 54.86,-16.43 10.55,-10.88 15.85,-28.83 15.85,-53.73l0 -260.96 46.38 0 0 264.34c0,33.98 -9.31,60.07 -27.99,78.41z"/>
   <polygon fill="#64818A" fill-rule="nonzero" points="5895.85,2316.51 6142.05,2316.51 6142.05,2353.28 5942.23,2353.28 5942.23,2480.67 6121.7,2480.67 6121.7,2516.91 5942.23,2516.91 5942.23,2644.84 6142.05,2644.84 6142.05,2681.07 5895.85,2681.07 "/>
   <polygon fill="#64818A" fill-rule="nonzero" points="6603.98,2681.04 6557.59,2681.04 6557.59,2353.31 6436.42,2353.31 6436.42,2316.48 6725.14,2316.48 6725.14,2353.31 6603.98,2353.31 "/>
   <path fill="#64818A" fill-rule="nonzero" d="M7265.12 2411.88c-8.67,-21.67 -21.82,-37.36 -39.61,-46.97 -17.75,-9.62 -40.75,-14.41 -69.05,-14.41 -28.29,0 -51.33,4.8 -69.04,14.41 -17.75,9.6 -30.98,25.3 -39.61,46.97 -8.69,21.72 -13,50.66 -13,86.9 0,36.24 4.31,65.22 13,86.88 8.63,21.72 21.86,37.36 39.61,46.97 17.71,9.62 40.75,14.43 69.04,14.43 28.3,0 51.3,-4.81 69.05,-14.43 17.79,-9.6 30.94,-25.24 39.61,-46.97 8.73,-21.67 13.04,-50.65 13.04,-86.88 0,-36.24 -4.31,-65.17 -13.04,-86.9zm18.43 229.53c-27.35,30.2 -69.72,45.26 -127.1,45.26 -57.36,0 -99.73,-15.05 -127.1,-45.26 -27.31,-30.2 -41.03,-77.73 -41.03,-142.64 0,-64.92 13.72,-112.45 41.03,-142.65 27.37,-30.2 69.73,-45.3 127.1,-45.3 57.38,0 99.74,15.09 127.1,45.3 27.37,30.2 41.04,77.73 41.04,142.65 0,64.91 -13.68,112.43 -41.04,142.64z"/>
   <path fill="#64818A" fill-rule="nonzero" d="M7827.47 2660.68c-23.53,17.35 -58.35,26.03 -104.4,26.03 -45.3,0 -81.88,-5.64 -109.83,-16.97l0 -41.34c33.25,12.45 68.45,18.68 105.87,18.68 33.58,0 58.2,-4.56 73.89,-13.58 15.6,-9.06 23.43,-24.91 23.43,-47.56 0,-13.97 -3.28,-25.2 -9.85,-33.68 -6.62,-8.49 -17.01,-15.65 -31.18,-21.47 -14.12,-5.89 -34.78,-12.02 -61.99,-18.39 -39.96,-9.85 -68.11,-22.46 -84.29,-37.96 -16.28,-15.5 -24.37,-36.58 -24.37,-63.39 0,-31.68 11.43,-56.35 34.22,-73.9 22.85,-17.55 56.54,-26.28 101.06,-26.28 19.61,0 38.58,1.43 56.88,4.23 18.29,2.84 32.96,6.17 43.84,9.9l0 40.75c-28.59,-10.15 -59.73,-15.25 -93.36,-15.25 -32.07,0 -56.1,4.71 -72.12,14.12 -16.08,9.47 -24.13,24.91 -24.13,46.44 0,12.45 2.89,22.45 8.53,30.01 5.64,7.55 15.21,14.07 28.54,19.51 13.44,5.49 33.34,11.43 59.78,17.85 42.6,10.2 72.42,23.88 89.43,41.04 16.97,17.15 25.51,39.32 25.51,66.48 0,32.47 -11.87,57.38 -35.46,74.74z"/>
   <path fill="#64818A" fill-rule="nonzero" d="M8881.79 2411.31c-7.55,-21.32 -19.51,-36.28 -35.99,-44.96 -16.37,-8.73 -38.93,-13.04 -67.62,-13.04l-87.72 0 0 291.5 87.72 0c27.17,0 48.94,-3.96 65.41,-11.86 16.37,-7.95 28.73,-22.27 37.07,-43 8.28,-20.79 12.41,-50.41 12.41,-88.9 0,-38.49 -3.78,-68.4 -11.29,-89.73zm21.43 226.74c-24.13,28.63 -63.01,42.99 -116.5,42.99l-142.73 0 0 -364.57 142.73 0c53.15,0 91.94,14.47 116.25,43.35 24.38,28.88 36.54,75.95 36.54,141.22 0,62.62 -12.06,108.32 -36.29,137.01z"/>
   <polygon fill="#64818A" fill-rule="nonzero" points="9256.49,2316.51 9502.69,2316.51 9502.69,2353.28 9302.87,2353.28 9302.87,2480.67 9482.34,2480.67 9482.34,2516.91 9302.87,2516.91 9302.87,2644.84 9502.69,2644.84 9502.69,2681.07 9256.49,2681.07 "/>
   <polygon fill="#64818A" fill-rule="nonzero" points="3635.65,2995.77 3881.85,2995.77 3881.85,3032.54 3682.05,3032.54 3682.05,3159.93 3861.46,3159.93 3861.46,3196.17 3682.05,3196.17 3682.05,3324.1 3881.85,3324.1 3881.85,3360.33 3635.65,3360.33 "/>
   <polygon fill="#64818A" fill-rule="nonzero" points="4284.88,3360.32 4238.49,3360.32 4238.49,2995.75 4280.37,2995.75 4488.13,3288.97 4488.13,2995.75 4534.56,2995.75 4534.56,3360.32 4492.1,3360.32 4284.88,3067.68 "/>
   <path fill="#64818A" fill-rule="nonzero" d="M5156.04 3311.64l0 -116.07 -97.34 0 0 -31.66 137.49 0 0 173.23c-30.16,19.22 -73.56,28.83 -130.14,28.83 -57.36,0 -100.91,-16.03 -130.53,-48.09 -29.61,-32.07 -44.42,-76.06 -44.42,-131.9 0,-61.88 14.27,-109.99 42.75,-144.36 28.49,-34.32 72.33,-51.48 131.61,-51.48 38.83,0 74.14,5.64 105.86,16.97l0 40.74c-32.11,-12.06 -66.04,-18.08 -101.94,-18.08 -47.17,0 -80.91,13.23 -101.3,39.61 -20.4,26.42 -30.55,65.31 -30.55,116.6 0,46.05 10.54,80.95 31.68,104.73 21.13,23.78 54.33,35.65 99.63,35.65 32.86,0 61.88,-4.91 87.19,-14.71z"/>
   <polygon fill="#64818A" fill-rule="nonzero" points="5552.86,2995.77 5799.06,2995.77 5799.06,3032.54 5599.24,3032.54 5599.24,3159.93 5778.65,3159.93 5778.65,3196.17 5599.24,3196.17 5599.24,3324.1 5799.06,3324.1 5799.06,3360.33 5552.86,3360.33 "/>
   <polygon fill="#64818A" fill-rule="nonzero" points="6202.08,3360.32 6155.7,3360.32 6155.7,2995.75 6197.56,2995.75 6405.32,3288.97 6405.32,2995.75 6451.76,2995.75 6451.76,3360.32 6409.29,3360.32 6202.08,3067.68 "/>
   <polygon fill="#64818A" fill-rule="nonzero" points="7058.55,3196.17 6866.08,3196.17 6866.08,3360.33 6819.7,3360.33 6819.7,2995.77 6866.08,2995.77 6866.08,3159.93 7058.55,3159.93 7058.55,2995.77 7104.98,2995.77 7104.98,3360.33 7058.55,3360.33 "/>
   <path fill="#64818A" fill-rule="nonzero" d="M7556.06 3223.34l142.11 0 -71.35 -187.35 -70.76 187.35zm-46.34 136.95l-48.19 0 138.72 -364.51 54.37 0 138.08 364.51 -47.56 0 -38.49 -100.17 -158.48 0 -38.45 100.17z"/>
   <path fill="#64818A" fill-rule="nonzero" d="M8375.74 3108.99c0,-50.94 -24.37,-76.45 -73.05,-76.45l-107 0 0 154.02 100.77 0c52.86,0 79.28,-25.89 79.28,-77.57zm26.58 67.08c-13.23,17.55 -32.45,29.33 -57.71,35.36 7.16,4.16 12.61,8.97 16.37,14.46 3.78,5.49 8.15,13.69 13.05,24.62l47.56 109.79 -47.56 0 -46.44 -105.82c-5.3,-12.06 -11.62,-20.4 -18.97,-24.91 -7.35,-4.56 -19.38,-6.81 -35.94,-6.81l-76.99 0 0 137.53 -46.38 0 0 -364.52 160.15 0c38.14,0 66.48,9.91 84.97,29.72 18.49,19.82 27.72,47.66 27.72,83.51 0,27.16 -6.57,49.52 -19.82,67.08z"/>
   <polygon fill="#64818A" fill-rule="nonzero" points="8778.74,2995.75 8825.17,2995.75 8825.17,3360.32 8778.74,3360.32 "/>
   <path fill="#64818A" fill-rule="nonzero" d="M9276.27 3223.34l142.09 0 -71.33 -187.35 -70.76 187.35zm-46.34 136.95l-48.2 0 138.72 -364.51 54.39 0 138.08 364.51 -47.56 0 -38.49 -100.17 -158.48 0 -38.45 100.17z"/>
   <polygon fill="#072959" fill-rule="nonzero" points="1807.33,1788.12 1558.59,1931.74 2293.99,2359.8 1558.59,2784.39 823.17,2359.8 574.43,2503.42 -0,2835.09 1558.53,3734.91 3117.08,2835.09 3117.08,1878.69 2381.71,1456.46 "/>
   <polygon fill="#64818A" fill-rule="nonzero" points="1309.74,1946.78 1558.49,1803.16 823.08,1375.1 1558.49,950.52 2293.89,1375.1 2542.65,1231.48 3117.08,899.82 1558.53,0 -0,899.82 -0,1856.22 735.36,2278.45 "/>
  </g>
 </g>
</svg>
