<?xml version="1.0" encoding="UTF-8"?>
<!DOCTYPE svg PUBLIC "-//W3C//DTD SVG 1.1//EN" "http://www.w3.org/Graphics/SVG/1.1/DTD/svg11.dtd">
<!-- Creator: CorelDRAW -->
<svg xmlns="http://www.w3.org/2000/svg" xml:space="preserve" width="90.9818mm" height="36.4228mm" version="1.1" shape-rendering="geometricPrecision" text-rendering="geometricPrecision" image-rendering="optimizeQuality" fill-rule="evenodd" clip-rule="evenodd"
viewBox="0 0 1658.87 664.1"
 xmlns:xlink="http://www.w3.org/1999/xlink"
 xmlns:xodm="http://www.corel.com/coreldraw/odm/2003">
 <g id="Camada_x0020_1">
  <metadata id="CorelCorpID_0Corel-Layer"/>
  <g id="_3091332989728">
   <g>
    <path fill="#072959" fill-rule="nonzero" d="M653.86 294.12c-17.75,-2.78 -32.01,-6.26 -42.79,-10.43l0 -64.19c11.82,4.88 25.65,8.79 41.48,11.74 15.83,2.96 30.35,4.44 43.58,4.44 16.34,0 27.56,-0.79 33.65,-2.35 6.08,-1.57 9.13,-5.3 9.13,-11.22 0,-4.87 -2.96,-8.88 -8.87,-12 -5.92,-3.13 -16.36,-6.95 -31.31,-11.48l-22.43 -7.31c-24.36,-8.35 -41.93,-18 -52.71,-28.96 -10.79,-10.96 -16.18,-26.35 -16.18,-46.18 0,-50.44 38.26,-75.66 114.8,-75.66 14.95,0 30.09,1.13 45.4,3.39 15.31,2.26 28.18,5.13 38.62,8.61l0 63.13c-9.39,-4.17 -20.27,-7.38 -32.61,-9.65 -12.36,-2.26 -23.92,-3.39 -34.7,-3.39 -15.31,0 -26.8,0.87 -34.44,2.6 -7.65,1.75 -11.48,5.4 -11.48,10.96 0,4.88 2.43,8.44 7.31,10.7 4.87,2.26 14.26,5.48 28.18,9.66 6.95,1.74 14.09,3.83 21.39,6.26 19.48,5.92 34.61,12.27 45.4,19.05 10.78,6.79 18.44,14.88 22.96,24.27 4.51,9.39 6.78,21.22 6.78,35.48 0,25.05 -9.83,44.1 -29.48,57.14 -19.66,13.05 -48.27,19.57 -85.84,19.57 -19.49,0 -38.09,-1.4 -55.84,-4.18z"/>
    <path fill="#072959" fill-rule="nonzero" d="M1024.35 148.01l0 -10.96c0,-26.43 -16,-39.66 -48.01,-39.66 -19.83,0 -33.83,4 -42,12 -8.18,8 -12.26,20.87 -12.26,38.61l102.27 0zm-141.68 117.41c-25.57,-21.92 -38.35,-53.92 -38.35,-96.02 0,-40.35 11.04,-71.93 33.13,-94.71 22.09,-22.78 54.18,-34.18 96.28,-34.18 38.61,0 68.88,10.09 90.8,30.26 21.91,20.18 32.87,47.32 32.87,81.41l0 44.36 -175.33 0c3.82,16 12.52,27.32 26.08,33.92 13.57,6.61 33.05,9.92 58.45,9.92 13.57,0 27.4,-1.22 41.48,-3.65 14.09,-2.43 25.83,-5.56 35.22,-9.39l0 54.79c-23.66,10.79 -55.66,16.18 -96.01,16.18 -44.18,0 -79.06,-10.96 -104.63,-32.88z"/>
    <path fill="#072959" fill-rule="nonzero" d="M1127.14 45.73l78.27 0 2.61 21.39c10.77,-7.65 23.91,-14 39.4,-19.05 15.47,-5.04 31.4,-7.56 47.75,-7.56 31.65,0 54.87,7.65 69.66,22.96 14.79,15.31 22.18,38.97 22.18,70.97l0 158.63 -84.01 0 0 -151.84c0,-13.91 -3.05,-23.83 -9.13,-29.75 -6.09,-5.91 -16.61,-8.87 -31.57,-8.87 -9.05,0 -18.27,2.08 -27.66,6.26 -9.39,4.17 -17.22,9.39 -23.48,15.65l0 168.55 -84.02 0 0 -247.34z"/>
    <path fill="#072959" fill-rule="nonzero" d="M1578.52 222.63l0 -34.96 -59.49 0c-12.52,0 -21.83,2.43 -27.92,7.31 -6.09,4.87 -9.13,12.35 -9.13,22.44 0,19.49 12.86,29.22 38.62,29.22 25.04,0 44.36,-8 57.92,-24zm-147.42 55.58c-16.52,-13.39 -24.78,-32.62 -24.78,-57.66 0,-25.74 8.78,-45.74 26.35,-60.01 17.56,-14.26 43.22,-21.39 76.97,-21.39l68.88 0 0 -5.74c0,-12.87 -4.26,-21.92 -12.79,-27.14 -8.53,-5.22 -24.09,-7.83 -46.7,-7.83 -28.18,0 -55.83,4.36 -82.97,13.05l0 -54.27c12.52,-4.86 27.66,-8.87 45.4,-12 17.74,-3.13 36.01,-4.7 54.79,-4.7 39.31,0 69.58,8.01 90.8,24 21.22,16 31.83,40.7 31.83,74.1l0 154.46 -73.58 0 -4.17 -20.87c-19.14,17.4 -48.19,26.1 -87.15,26.1 -25.4,0 -46.36,-6.7 -62.88,-20.09z"/>
   </g>
   <path fill="#4E6982" fill-rule="nonzero" d="M753.02 623.58l0 -311.27 72.17 0 0 108.53c8.07,-6.16 18.08,-11.16 30.03,-15.01 11.96,-3.85 24.8,-5.77 38.55,-5.77 28.39,0 49.23,6.93 62.53,20.78 13.3,13.86 19.95,35.1 19.95,63.73l0 139.01 -72.17 0 0 -133.93c0,-12.62 -2.54,-21.55 -7.62,-26.79 -5.08,-5.23 -14.2,-7.85 -27.35,-7.85 -7.77,0 -15.69,1.85 -23.76,5.54 -8.07,3.7 -14.79,8.31 -20.17,13.86l0 149.17 -72.17 0z"/>
   <path id="_1" fill="#4E6982" fill-rule="nonzero" d="M1092.8 628.2c-25.1,0 -44.67,-7.31 -58.72,-21.94 -14.04,-14.62 -21.07,-35.95 -21.07,-63.96l0 -137.62 72.17 0 0 133.47c0,12.32 2.91,21.32 8.74,27.02 5.83,5.7 14.57,8.54 26.22,8.54 8.67,0 16.89,-1.85 24.65,-5.54 7.77,-3.69 14.2,-8.31 19.28,-13.86l0 -149.63 72.17 0 0 218.91 -67.24 0 -2.24 -18.47c-8.67,6.77 -19.13,12.32 -31.38,16.63 -12.25,4.31 -26.45,6.47 -42.59,6.47z"/>
   <path id="_2" fill="#4E6982" fill-rule="nonzero" d="M1415.1 628.2c-14.34,0 -26.89,-1.92 -37.65,-5.77 -10.76,-3.85 -20.47,-9.62 -29.14,-17.32l-3.59 18.47 -62.76 0 0 -311.27 72.17 0 0 102.52c8.07,-4.92 17.18,-8.62 27.34,-11.08 10.16,-2.46 20.62,-3.69 31.38,-3.69 31.08,0 55.58,8.85 73.52,26.55 17.93,17.7 26.89,46.26 26.89,85.67 0,39.41 -8.81,68.58 -26.45,87.52 -17.63,18.93 -41.54,28.4 -71.72,28.4zm-20.62 -54.03c16.14,0 27.72,-5 34.74,-15.01 7.02,-10.01 10.53,-25.48 10.53,-46.41 0,-21.55 -3.66,-36.64 -10.98,-45.26 -7.32,-8.62 -18.75,-12.93 -34.29,-12.93 -17.04,0 -30.48,4.62 -40.34,13.86l0 89.13c10.76,11.08 24.2,16.63 40.34,16.63z"/>
   <polygon fill="#072959" points="241.14,159.77 482.29,298.99 482.27,664.1 354.92,590.55 354.92,372.52 241.13,306.84 219.92,319.09 149.81,278.62 149.81,212.5 "/>
   <polygon fill="#64818A" points="354.92,199.54 354.92,73.54 482.27,0 482.28,273.07 "/>
   <g>
    <polygon fill="#072959" points="127.37,464.56 127.37,590.55 0.01,664.1 0.01,391.02 "/>
    <polygon fill="#64818A" points="241.14,504.33 -0,365.11 0.01,0 127.37,73.54 127.37,291.58 241.15,357.26 262.37,345.01 332.47,385.48 332.47,451.6 "/>
   </g>
  </g>
 </g>
</svg>
