<?xml version="1.0" encoding="UTF-8"?>
<!DOCTYPE svg PUBLIC "-//W3C//DTD SVG 1.1//EN" "http://www.w3.org/Graphics/SVG/1.1/DTD/svg11.dtd">
<!-- Creator: CorelDRAW -->
<svg xmlns="http://www.w3.org/2000/svg" xml:space="preserve" width="53.2571mm" height="68.6009mm" version="1.1" shape-rendering="geometricPrecision" text-rendering="geometricPrecision" image-rendering="optimizeQuality" fill-rule="evenodd" clip-rule="evenodd"
viewBox="0 0 937.21 1207.23"
 xmlns:xlink="http://www.w3.org/1999/xlink"
 xmlns:xodm="http://www.corel.com/coreldraw/odm/2003">
 <g id="Camada_x0020_1">
  <metadata id="CorelCorpID_0Corel-Layer"/>
  <g id="_3092135123792">
   <polygon fill="#072959" points="462.81,154.2 695.55,288.58 695.54,640.97 572.62,569.98 572.62,359.54 462.8,296.15 442.32,307.97 374.66,268.92 374.66,205.1 "/>
   <polygon fill="#64818A" points="572.62,192.59 572.62,70.98 695.54,0 695.54,263.56 "/>
   <g>
    <polygon fill="#072959" points="352.99,448.38 353,569.98 230.08,640.97 230.07,377.4 "/>
    <polygon fill="#64818A" points="462.81,486.76 230.06,352.39 230.08,0 352.99,70.98 352.99,281.42 462.81,344.82 483.29,332.99 550.95,372.05 550.95,435.87 "/>
   </g>
  </g>
  <g id="_3092135124416">
   <g>
    <path fill="#072959" fill-rule="nonzero" d="M41.39 909.46c-15.82,-2.48 -28.53,-5.58 -38.14,-9.3l0 -57.21c10.54,4.34 22.86,7.84 36.97,10.46 14.11,2.64 27.05,3.96 38.84,3.96 14.57,0 24.57,-0.7 30,-2.09 5.42,-1.4 8.14,-4.73 8.14,-10 0,-4.34 -2.64,-7.91 -7.9,-10.7 -5.28,-2.79 -14.58,-6.2 -27.91,-10.23l-20 -6.51c-21.71,-7.44 -37.37,-16.05 -46.98,-25.81 -9.62,-9.77 -14.42,-23.49 -14.42,-41.17 0,-44.96 34.11,-67.44 102.32,-67.44 13.33,0 26.82,1.01 40.47,3.02 13.64,2.02 25.12,4.57 34.42,7.67l0 56.27c-8.37,-3.71 -18.06,-6.58 -29.07,-8.6 -11.01,-2.01 -21.32,-3.02 -30.93,-3.02 -13.65,0 -23.88,0.77 -30.7,2.32 -6.82,1.56 -10.23,4.81 -10.23,9.77 0,4.34 2.17,7.52 6.51,9.53 4.34,2.02 12.71,4.89 25.12,8.61 6.2,1.55 12.56,3.42 19.07,5.58 17.36,5.28 30.85,10.93 40.46,16.98 9.61,6.05 16.43,13.26 20.47,21.63 4.02,8.37 6.05,18.91 6.05,31.63 0,22.33 -8.77,39.31 -26.28,50.93 -17.52,11.63 -43.02,17.44 -76.51,17.44 -17.37,0 -33.95,-1.25 -49.77,-3.72z"/>
    <path fill="#072959" fill-rule="nonzero" d="M371.63 779.22l0 -9.77c0,-23.56 -14.26,-35.35 -42.79,-35.35 -17.68,0 -30.16,3.57 -37.44,10.7 -7.29,7.13 -10.93,18.6 -10.93,34.42l91.16 0zm-126.28 104.66c-22.79,-19.54 -34.18,-48.06 -34.18,-85.59 0,-35.96 9.84,-64.11 29.53,-84.42 19.69,-20.31 48.29,-30.47 85.82,-30.47 34.42,0 61.39,9 80.93,26.98 19.53,17.99 29.3,42.18 29.3,72.56l0 39.54 -156.28 0c3.41,14.26 11.16,24.35 23.25,30.23 12.1,5.9 29.46,8.84 52.1,8.84 12.09,0 24.42,-1.08 36.97,-3.26 12.56,-2.17 23.03,-4.96 31.4,-8.37l0 48.84c-21.09,9.62 -49.61,14.42 -85.58,14.42 -39.38,0 -70.47,-9.77 -93.26,-29.3z"/>
    <path fill="#072959" fill-rule="nonzero" d="M463.26 688.06l69.77 0 2.33 19.07c9.6,-6.82 21.32,-12.48 35.12,-16.98 13.79,-4.49 27.98,-6.74 42.56,-6.74 28.21,0 48.91,6.82 62.09,20.47 13.18,13.65 19.77,34.73 19.77,63.26l0 141.4 -74.88 0 0 -135.35c0,-12.4 -2.72,-21.24 -8.14,-26.52 -5.43,-5.27 -14.81,-7.91 -28.14,-7.91 -8.07,0 -16.28,1.86 -24.65,5.58 -8.37,3.72 -15.35,8.37 -20.93,13.95l0 150.24 -74.89 0 0 -220.47z"/>
    <path fill="#072959" fill-rule="nonzero" d="M865.59 845.73l0 -31.16 -53.03 0c-11.16,0 -19.46,2.17 -24.88,6.51 -5.43,4.34 -8.14,11.01 -8.14,20 0,17.37 11.47,26.05 34.42,26.05 22.32,0 39.54,-7.13 51.63,-21.4zm-131.4 49.54c-14.73,-11.94 -22.09,-29.07 -22.09,-51.4 0,-22.94 7.83,-40.77 23.49,-53.49 15.65,-12.71 38.53,-19.07 68.6,-19.07l61.4 0 0 -5.11c0,-11.47 -3.8,-19.54 -11.4,-24.19 -7.6,-4.66 -21.48,-6.98 -41.63,-6.98 -25.12,0 -49.77,3.88 -73.95,11.63l0 -48.37c11.16,-4.33 24.65,-7.91 40.46,-10.7 15.81,-2.79 32.1,-4.18 48.84,-4.18 35.04,0 62.02,7.14 80.93,21.4 18.91,14.26 28.37,36.28 28.37,66.05l0 137.68 -65.59 0 -3.71 -18.61c-17.06,15.51 -42.95,23.26 -77.68,23.26 -22.64,0 -41.33,-5.97 -56.05,-17.91z"/>
   </g>
   <path fill="#4E6982" fill-rule="nonzero" d="M129.78 1203.12l0 -277.45 64.33 0 0 96.74c7.19,-5.49 16.11,-9.95 26.77,-13.38 10.66,-3.43 22.11,-5.15 34.36,-5.15 25.31,0 43.89,6.17 55.74,18.52 11.85,12.35 17.78,31.29 17.78,56.81l0 123.91 -64.33 0 0 -119.38c0,-11.25 -2.26,-19.21 -6.79,-23.88 -4.53,-4.67 -12.65,-7 -24.37,-7 -6.93,0 -13.99,1.65 -21.18,4.94 -7.19,3.29 -13.18,7.41 -17.98,12.35l0 132.96 -64.33 0z"/>
   <path id="_1" fill="#4E6982" fill-rule="nonzero" d="M432.64 1207.23c-22.37,0 -39.82,-6.52 -52.34,-19.55 -12.52,-13.03 -18.78,-32.04 -18.78,-57.01l0 -122.67 64.33 0 0 118.97c0,10.98 2.6,19 7.79,24.08 5.19,5.08 12.99,7.62 23.37,7.62 7.73,0 15.05,-1.65 21.98,-4.94 6.93,-3.29 12.65,-7.41 17.18,-12.35l0 -133.37 64.33 0 0 195.12 -59.93 0 -2 -16.47c-7.72,6.04 -17.05,10.98 -27.97,14.82 -10.92,3.84 -23.57,5.76 -37.96,5.76z"/>
   <path id="_2" fill="#4E6982" fill-rule="nonzero" d="M719.93 1207.23c-12.78,0 -23.97,-1.71 -33.56,-5.15 -9.59,-3.43 -18.25,-8.58 -25.97,-15.44l-3.2 16.47 -55.94 0 0 -277.45 64.33 0 0 91.39c7.19,-4.39 15.31,-7.68 24.37,-9.88 9.06,-2.2 18.38,-3.29 27.97,-3.29 27.7,0 49.55,7.89 65.53,23.67 15.98,15.78 23.98,41.23 23.98,76.36 0,35.13 -7.86,61.13 -23.58,78.01 -15.71,16.88 -37.02,25.32 -63.93,25.32zm-18.38 -48.16c14.38,0 24.71,-4.46 30.97,-13.38 6.26,-8.92 9.39,-22.71 9.39,-41.37 0,-19.21 -3.26,-32.66 -9.79,-40.34 -6.53,-7.69 -16.72,-11.53 -30.57,-11.53 -15.18,0 -27.17,4.12 -35.96,12.35l0 79.45c9.59,9.88 21.58,14.82 35.96,14.82z"/>
  </g>
 </g>
</svg>
