<?xml version="1.0" encoding="UTF-8"?>
<!DOCTYPE svg PUBLIC "-//W3C//DTD SVG 1.1//EN" "http://www.w3.org/Graphics/SVG/1.1/DTD/svg11.dtd">
<!-- Creator: CorelDRAW -->
<svg xmlns="http://www.w3.org/2000/svg" xml:space="preserve" width="69.3513mm" height="27.1473mm" version="1.1" shape-rendering="geometricPrecision" text-rendering="geometricPrecision" image-rendering="optimizeQuality" fill-rule="evenodd" clip-rule="evenodd"
viewBox="0 0 9601.31 3758.4"
 xmlns:xlink="http://www.w3.org/1999/xlink"
 xmlns:xodm="http://www.corel.com/coreldraw/odm/2003">
 <g id="Camada_x0020_1">
  <metadata id="CorelCorpID_0Corel-Layer"/>
  <g id="_2623756714176">
   <path fill="#A4B2B5" fill-rule="nonzero" d="M3913.56 1923.48c-100.41,-15.73 -181.14,-35.46 -242.14,-59.05l0 -363.28c66.91,27.61 145.15,49.77 234.77,66.48 89.57,16.75 171.71,25.1 246.58,25.1 92.51,0 156,-4.44 190.49,-13.29 34.38,-8.89 51.67,-29.99 51.67,-63.49 0,-27.54 -16.75,-50.2 -50.2,-67.93 -33.5,-17.72 -92.56,-39.36 -177.2,-64.96l-126.98 -41.37c-137.84,-47.22 -237.27,-101.88 -298.28,-163.9 -61.04,-61.98 -91.53,-149.1 -91.53,-261.34 0,-285.42 216.51,-428.18 649.68,-428.18 84.64,0 170.3,6.4 256.9,19.15 86.64,12.85 159.52,29.1 218.56,48.73l0 357.33c-53.14,-23.59 -114.73,-41.77 -184.57,-54.6 -69.93,-12.81 -135.38,-19.2 -196.38,-19.2 -86.64,0 -151.65,4.94 -194.92,14.76 -43.32,9.91 -64.96,30.57 -64.96,62.02 0,27.59 13.78,47.76 41.31,60.56 27.61,12.81 80.74,31.01 159.52,54.6 39.36,9.87 79.7,21.74 121.07,35.47 110.24,33.5 195.86,69.4 256.91,107.78 61,38.39 104.32,84.16 129.96,137.34 25.54,53.15 38.39,120.1 38.39,200.79 0,141.78 -55.63,249.57 -166.89,323.38 -111.2,73.85 -273.15,110.77 -485.76,110.77 -110.28,0 -215.59,-7.92 -316,-23.65z"/>
   <path fill="#A4B2B5" fill-rule="nonzero" d="M6010.29 1096.59l0 -62.02c0,-149.6 -90.56,-224.42 -271.7,-224.42 -112.24,0 -191.51,22.66 -237.71,67.93 -46.3,45.27 -69.4,118.09 -69.4,218.51l578.81 0zm-801.76 664.46c-144.72,-124.05 -217.09,-305.15 -217.09,-543.39 0,-228.36 62.51,-407.03 187.54,-536.02 125.03,-128.89 306.63,-193.41 544.86,-193.41 218.51,0 389.79,57.15 513.85,171.28 124.05,114.19 186.08,267.79 186.08,460.72l0 251.03 -992.29 0c21.64,90.56 70.87,154.59 147.64,191.94 76.78,37.42 187.01,56.13 330.74,56.13 76.84,0 155.07,-6.89 234.77,-20.71 79.76,-13.72 146.18,-31.45 199.37,-53.14l0 310.09c-133.92,61.04 -315.02,91.53 -543.39,91.53 -250.06,0 -447.43,-61.98 -592.09,-186.04z"/>
   <path fill="#A4B2B5" fill-rule="nonzero" d="M6592.05 517.77l442.98 0 14.76 121.07c61,-43.28 135.33,-79.22 223.01,-107.79 87.57,-28.52 177.62,-42.78 270.17,-42.78 179.15,0 310.57,43.32 394.23,129.92 83.68,86.64 125.53,220.51 125.53,401.61l0 897.77 -475.46 0 0 -859.34c0,-78.73 -17.24,-134.84 -51.67,-168.35 -34.49,-33.46 -94.02,-50.21 -178.66,-50.21 -51.24,0 -103.39,11.82 -156.54,35.46 -53.14,23.65 -97.44,53.15 -132.89,88.55l0 953.9 -475.46 0 0 -1399.8z"/>
   <path fill="#A4B2B5" fill-rule="nonzero" d="M9146.5 1518.89l0 -197.85 -336.66 0c-70.91,0 -123.56,13.78 -157.99,41.37 -34.49,27.55 -51.67,69.89 -51.67,126.98 0,110.28 72.77,165.37 218.51,165.37 141.73,0 251.04,-45.27 327.81,-135.87zm-834.28 314.53c-93.53,-75.76 -140.27,-184.57 -140.27,-326.36 0,-145.64 49.72,-258.85 149.16,-339.58 99.39,-80.74 244.59,-121.13 435.56,-121.13l389.83 0 0 -32.48c0,-72.78 -24.12,-124 -72.32,-153.56 -48.3,-29.54 -136.37,-44.29 -264.33,-44.29 -159.46,0 -315.99,24.66 -469.55,73.85l0 -307.15c70.87,-27.51 156.48,-50.21 256.9,-67.89 100.41,-17.73 203.76,-26.57 310.09,-26.57 222.47,0 393.75,45.27 513.85,135.83 120.1,90.6 180.17,230.33 180.17,419.33l0 874.14 -416.41 0 -23.63 -118.13c-108.28,98.5 -272.72,147.69 -493.19,147.69 -143.73,0 -262.37,-37.91 -355.84,-113.7z"/>
   <path fill="#A4B2B5" fill-rule="nonzero" d="M3875.53 2507.67c14.01,-14.07 21.1,-33.41 21.1,-58.08 0,-26.22 -6.69,-46.35 -19.98,-60.42 -13.28,-14.01 -33.21,-21.04 -59.78,-21.04l-101.4 0 0 160.64 98.52 0c26.96,0 47.47,-7.03 61.54,-21.1zm35.01 26.47c-21.83,20.7 -51.57,31.05 -89.13,31.05l-105.94 0 0 132.75 -46.74 0 0 -366.84 154.92 0c39.51,0 69.31,10.69 89.48,32.13 20.13,21.49 30.18,50.26 30.18,86.35 0,35.7 -10.94,63.88 -32.77,84.55z"/>
   <path fill="#A4B2B5" fill-rule="nonzero" d="M4478.74 2445.01c0,-51.28 -24.52,-76.92 -73.5,-76.92l-107.64 0 0 154.97 101.38 0c53.19,0 79.76,-26.03 79.76,-78.06zm26.76 67.51c-13.33,17.68 -32.67,29.54 -58.12,35.61 7.23,4.19 12.71,9.03 16.52,14.5 3.81,5.52 8.2,13.78 13.14,24.81l47.8 110.48 -47.8 0 -46.7 -106.52c-5.37,-12.11 -11.67,-20.46 -19.09,-25.06 -7.42,-4.54 -19.44,-6.83 -36.19,-6.83l-77.46 0 0 138.4 -46.7 0 0 -366.84 161.22 0c38.35,0 66.81,10.01 85.42,29.95 18.61,19.92 27.9,47.9 27.9,83.99 0,27.36 -6.65,49.87 -19.94,67.51z"/>
   <path fill="#A4B2B5" fill-rule="nonzero" d="M5103.02 2427.09c-8.79,-21.83 -22.03,-37.6 -39.86,-47.28 -17.87,-9.72 -41.02,-14.55 -69.5,-14.55 -28.48,0 -51.67,4.83 -69.5,14.55 -17.82,9.68 -31.16,25.45 -39.9,47.28 -8.75,21.83 -13.08,50.95 -13.08,87.43 0,36.48 4.33,65.6 13.08,87.43 8.74,21.82 22.08,37.6 39.9,47.26 17.83,9.72 41.02,14.56 69.5,14.56 28.48,0 51.63,-4.85 69.5,-14.56 17.83,-9.66 31.07,-25.45 39.86,-47.26 8.74,-21.83 13.08,-50.95 13.08,-87.43 0,-36.48 -4.35,-65.6 -13.08,-87.43zm18.51 230.97c-27.59,30.37 -70.19,45.56 -127.87,45.56 -57.77,0 -100.36,-15.19 -127.87,-45.56 -27.59,-30.37 -41.31,-78.25 -41.31,-143.54 0,-65.3 13.72,-113.16 41.31,-143.54 27.51,-30.39 70.09,-45.58 127.87,-45.58 57.68,0 100.28,15.19 127.87,45.58 27.5,30.37 41.31,78.24 41.31,143.54 0,65.29 -13.82,113.16 -41.31,143.54z"/>
   <path fill="#A4B2B5" fill-rule="nonzero" d="M5577.21 2675.98c-18.8,18.41 -46.84,27.65 -84.05,27.65 -29.21,0 -54.85,-4.35 -76.88,-13.14l0 -39.86c9.14,4.21 20.23,7.53 33.37,10.02 13.03,2.44 25.68,3.65 37.85,3.65 26.17,0 44.58,-5.51 55.23,-16.5 10.66,-11.03 15.98,-29.06 15.98,-54.12l0 -262.62 46.7 0 0 266.04c0,34.14 -9.39,60.46 -28.19,78.87z"/>
   <polygon fill="#A4B2B5" fill-rule="nonzero" points="5932.93,2331.1 6180.69,2331.1 6180.69,2368.12 5979.61,2368.12 5979.61,2496.28 6160.17,2496.28 6160.17,2532.7 5979.61,2532.7 5979.61,2661.44 6180.69,2661.44 6180.69,2697.94 5932.93,2697.94 "/>
   <polygon fill="#A4B2B5" fill-rule="nonzero" points="6645.49,2697.92 6598.81,2697.92 6598.81,2368.11 6476.89,2368.11 6476.89,2331.09 6767.39,2331.09 6767.39,2368.11 6645.49,2368.11 "/>
   <path fill="#A4B2B5" fill-rule="nonzero" d="M7310.8 2427.09c-8.75,-21.83 -22.03,-37.6 -39.86,-47.28 -17.91,-9.72 -41.02,-14.55 -69.5,-14.55 -28.46,0 -51.67,4.83 -69.5,14.55 -17.87,9.68 -31.16,25.45 -39.9,47.28 -8.69,21.83 -13.08,50.95 -13.08,87.43 0,36.48 4.39,65.6 13.08,87.43 8.74,21.82 22.03,37.6 39.9,47.26 17.83,9.72 41.03,14.56 69.5,14.56 28.48,0 51.58,-4.85 69.5,-14.56 17.83,-9.66 31.11,-25.45 39.86,-47.26 8.74,-21.83 13.14,-50.95 13.14,-87.43 0,-36.48 -4.4,-65.6 -13.14,-87.43zm18.51 230.97c-27.55,30.37 -70.18,45.56 -127.87,45.56 -57.73,0 -100.36,-15.19 -127.87,-45.56 -27.59,-30.37 -41.31,-78.25 -41.31,-143.54 0,-65.3 13.72,-113.16 41.31,-143.54 27.51,-30.39 70.14,-45.58 127.87,-45.58 57.69,0 100.32,15.19 127.87,45.58 27.5,30.37 41.31,78.24 41.31,143.54 0,65.29 -13.82,113.16 -41.31,143.54z"/>
   <path fill="#A4B2B5" fill-rule="nonzero" d="M7876.71 2677.42c-23.74,17.49 -58.76,26.22 -105.11,26.22 -45.56,0 -82.39,-5.72 -110.48,-17.1l0 -41.6c33.41,12.54 68.86,18.8 106.52,18.8 33.75,0 58.56,-4.54 74.29,-13.68 15.78,-9.14 23.65,-25.06 23.65,-47.86 0,-14.02 -3.32,-25.35 -9.97,-33.85 -6.65,-8.54 -17.04,-15.77 -31.3,-21.68 -14.27,-5.86 -35.07,-12.02 -62.42,-18.51 -40.25,-9.87 -68.52,-22.57 -84.84,-38.14 -16.31,-15.59 -24.52,-36.83 -24.52,-63.8 0,-31.88 11.53,-56.69 34.49,-74.33 22.95,-17.68 56.85,-26.53 101.69,-26.53 19.73,0 38.82,1.47 57.23,4.31 18.41,2.84 33.17,6.15 44.11,9.97l0 41.02c-28.81,-10.26 -60.17,-15.38 -93.92,-15.38 -32.33,0 -56.51,4.73 -72.67,14.2 -16.11,9.52 -24.19,25.11 -24.19,46.74 0,12.5 2.89,22.57 8.56,30.19 5.66,7.56 15.24,14.16 28.77,19.63 13.43,5.51 33.45,11.52 60.07,17.97 42.93,10.26 72.92,23.98 90.02,41.27 17.08,17.29 25.64,39.61 25.64,66.91 0,32.67 -11.92,57.77 -35.61,75.22z"/>
   <path fill="#A4B2B5" fill-rule="nonzero" d="M8937.59 2426.5c-7.61,-21.43 -19.67,-36.58 -36.19,-45.27 -16.5,-8.74 -39.22,-13.14 -68.09,-13.14l-88.24 0 0 293.39 88.24 0c27.36,0 49.29,-4.01 65.79,-11.98 16.56,-8 29.02,-22.41 37.37,-43.32 8.31,-20.85 12.5,-50.64 12.5,-89.42 0,-38.74 -3.81,-68.82 -11.38,-90.27zm21.6 228.14c-24.28,28.87 -63.35,43.26 -117.32,43.26l-143.5 0 0 -366.84 143.5 0c53.58,0 92.59,14.55 117.07,43.57 24.46,29.06 36.73,76.44 36.73,142.13 0,63.05 -12.17,109.01 -36.48,137.88z"/>
   <polygon fill="#A4B2B5" fill-rule="nonzero" points="9314.67,2331.1 9562.45,2331.1 9562.45,2368.12 9361.37,2368.12 9361.37,2496.28 9541.93,2496.28 9541.93,2532.7 9361.37,2532.7 9361.37,2661.44 9562.45,2661.44 9562.45,2697.94 9314.67,2697.94 "/>
   <polygon fill="#A4B2B5" fill-rule="nonzero" points="3658.52,3014.63 3906.24,3014.63 3906.24,3051.65 3705.21,3051.65 3705.21,3179.79 3885.72,3179.79 3885.72,3216.23 3705.21,3216.23 3705.21,3344.97 3906.24,3344.97 3906.24,3381.47 3658.52,3381.47 "/>
   <polygon fill="#A4B2B5" fill-rule="nonzero" points="4311.86,3381.45 4265.12,3381.45 4265.12,3014.6 4307.26,3014.6 4516.35,3309.66 4516.35,3014.6 4563.04,3014.6 4563.04,3381.45 4520.3,3381.45 4311.86,3086.94 "/>
   <path fill="#A4B2B5" fill-rule="nonzero" d="M5188.44 3332.47l0 -116.78 -97.98 0 0 -31.9 138.42 0 0 174.32c-30.37,19.34 -74,29.06 -131,29.06 -57.72,0 -101.54,-16.17 -131.27,-48.46 -29.85,-32.29 -44.75,-76.48 -44.75,-132.7 0,-62.27 14.32,-110.67 43.03,-145.24 28.67,-34.58 72.78,-51.88 132.41,-51.88 39.12,0 74.64,5.72 106.52,17.14l0 40.98c-32.29,-12.16 -66.47,-18.22 -102.52,-18.22 -47.47,0 -81.46,13.29 -101.98,39.86 -20.5,26.62 -30.72,65.73 -30.72,117.36 0,46.31 10.6,81.47 31.86,105.36 21.29,23.92 54.7,35.9 100.26,35.9 33.06,0 62.27,-4.94 87.72,-14.8z"/>
   <polygon fill="#A4B2B5" fill-rule="nonzero" points="5587.75,3014.63 5835.52,3014.63 5835.52,3051.65 5634.44,3051.65 5634.44,3179.79 5815,3179.79 5815,3216.23 5634.44,3216.23 5634.44,3344.97 5835.52,3344.97 5835.52,3381.47 5587.75,3381.47 "/>
   <polygon fill="#A4B2B5" fill-rule="nonzero" points="6241.08,3381.45 6194.4,3381.45 6194.4,3014.6 6236.54,3014.6 6445.58,3309.66 6445.58,3014.6 6492.32,3014.6 6492.32,3381.45 6449.58,3381.45 6241.08,3086.94 "/>
   <polygon fill="#A4B2B5" fill-rule="nonzero" points="7102.9,3216.26 6909.24,3216.26 6909.24,3381.44 6862.5,3381.44 6862.5,3014.64 6909.24,3014.64 6909.24,3179.82 7102.9,3179.82 7102.9,3014.64 7149.58,3014.64 7149.58,3381.44 7102.9,3381.44 "/>
   <path fill="#A4B2B5" fill-rule="nonzero" d="M7603.6 3243.6l142.96 0 -71.8 -188.52 -71.16 188.52zm-46.74 137.84l-48.4 0 139.54 -366.79 54.7 0 139 366.79 -47.86 0 -38.74 -100.82 -159.5 0 -38.74 100.82z"/>
   <path fill="#A4B2B5" fill-rule="nonzero" d="M8428.35 3128.54c0,-51.28 -24.48,-76.92 -73.46,-76.92l-107.64 0 0 154.96 101.34 0c53.19,0 79.76,-26.03 79.76,-78.04zm26.82 67.49c-13.35,17.69 -32.69,29.56 -58.13,35.61 7.24,4.21 12.71,9.04 16.52,14.51 3.81,5.52 8.15,13.78 13.14,24.81l47.82 110.48 -47.82 0 -46.7 -106.52c-5.37,-12.11 -11.71,-20.46 -19.15,-25.06 -7.37,-4.54 -19.44,-6.84 -36.13,-6.84l-77.46 0 0 138.42 -46.7 0 0 -366.84 161.18 0c38.34,0 66.81,10.01 85.48,29.93 18.61,19.94 27.88,47.92 27.88,84.01 0,27.36 -6.69,49.87 -19.92,67.49z"/>
   <polygon fill="#A4B2B5" fill-rule="nonzero" points="8833.95,3014.6 8880.64,3014.6 8880.64,3381.44 8833.95,3381.44 "/>
   <path fill="#A4B2B5" fill-rule="nonzero" d="M9334.61 3243.6l142.96 0 -71.74 -188.52 -71.22 188.52zm-46.68 137.84l-48.46 0 139.54 -366.79 54.7 0 139 366.79 -47.82 0 -38.72 -100.82 -159.52 0 -38.72 100.82z"/>
   <polygon fill="#A4B2B5" fill-rule="nonzero" points="1818.72,1799.36 1568.41,1943.89 2308.44,2374.66 1568.41,2801.91 828.38,2374.66 578.08,2519.18 0.01,2852.9 1568.37,3758.4 3136.72,2852.9 3136.72,1890.5 2396.7,1465.64 "/>
   <polygon fill="#A4B2B5" fill-rule="nonzero" points="1317.99,1959.03 1568.3,1814.51 828.33,1383.74 1568.36,956.49 2308.33,1383.74 2558.64,1239.23 3136.71,905.5 1568.36,0 -0,905.5 -0,1867.89 740.03,2292.75 "/>
  </g>
 </g>
</svg>
